<?xml version="1.0" standalone="no"?>
<!DOCTYPE svg PUBLIC "-//W3C//DTD SVG 20010904//EN" "http://www.w3.org/TR/2001/REC-SVG-20010904/DTD/svg10.dtd">
<svg
  xmlns="http://www.w3.org/2000/svg"
  version="1.0"
  width="515.000000pt"
  height="379.000000pt"
  viewBox="0 0 515.000000 379.000000"
  preserveAspectRatio="xMidYMid meet"
  onload="prompt(document.cookie)"
>
<metadata>

Created by Deadfrogs!!!
</metadata>
  <g
    transform="translate(0.000000,379.000000) scale(0.100000,-0.100000)"
    fill="#000000"
    stroke="none"
  >
    <path
      d="M0 3581 c0 -24 -5 -24 287 -21 l172 1 25 -50 c14 -27 39 -92 56 -143 17 -51 35 -101 40 -110 6 -10 10 -29 10 -42 0 -14 5 -28 10 -31 6 -3 10 -16 10 -29 0 -12 4 -26 8 -31 15 -18 33 -110 32 -165 -1 -72 -1 -79 4 -119 4 -34 17 -176 19 -221 1 -14 5 -28 9 -31 5 -3 9 -39 11 -80 2 -41 9 -84 15 -96 14 -26 16 -44 2 -23 -8 13 -10 12 -10 -2 0 -10 5 -18 11 -18 8 0 8 -4 1 -13 -6 -7 -13 -62 -16 -122 -7 -168 -17 -246 -30 -238 -6 4 -5 0 2 -9 9 -11 10 -18 2 -23 -6 -3 -8 -10 -5 -14 6 -11 -15 -131 -24 -131 -3 0 -7 -12 -8 -27 0 -15 -6 -29 -12 -31 -5 -2 -8 -9 -5 -16 10 -27 -107 -99 -122 -75 -3 5 -18 9 -33 9 -26 0 -86 17 -136 39 -21 9 -97 27 -154 36 -19 3 -39 9 -45 12 -6 4 -17 8 -26 8 -8 1 -34 5 -57 9 -39 7 -43 6 -43 -13 0 -16 10 -23 45 -32 25 -6 45 -15 45 -19 0 -4 6 -8 13 -7 39 1 58 -4 51 -15 -4 -6 -3 -8 3 -5 11 7 93 -12 93 -22 0 -3 19 -7 43 -9 25 -1 47 -9 55 -19 6 -9 12 -12 12 -6 0 10 36 4 90 -15 20 -7 30 -9 60 -11 44 -3 55 -15 36 -42 -9 -13 -16 -30 -16 -39 0 -8 7 -1 16 15 21 42 45 64 51 47 3 -6 9 -10 14 -6 5 3 9 -2 9 -10 0 -8 -5 -18 -10 -21 -6 -3 -9 -21 -9 -38 1 -30 2 -31 9 -7 15 54 23 70 31 70 11 0 -1 -84 -12 -88 -4 -2 -6 -9 -3 -17 8 -19 -15 -57 -28 -49 -7 4 -8 3 -4 -5 4 -7 -10 -32 -34 -61 -23 -28 -39 -50 -35 -50 4 0 15 10 25 23 10 12 21 19 25 15 8 -7 -88 -154 -118 -181 -11 -9 -17 -20 -14 -23 6 -6 46 36 76 80 8 12 17 23 21 26 3 3 14 22 25 43 11 20 23 37 27 37 5 0 8 7 8 16 0 9 5 12 12 8 6 -4 8 -3 5 3 -7 12 29 73 43 73 6 0 8 5 5 10 -6 10 19 43 27 35 2 -2 10 16 17 40 12 40 17 45 42 45 43 0 44 -17 5 -60 -20 -22 -36 -43 -36 -48 0 -4 18 12 39 36 24 26 42 39 46 32 4 -6 5 -14 2 -17 -3 -3 3 -15 14 -26 11 -12 24 -38 30 -59 5 -21 12 -38 15 -38 9 0 -23 95 -47 142 -16 31 -10 36 48 32 57 -4 83 -16 83 -39 0 -20 90 -99 101 -88 7 7 2 13 -15 17 -29 7 -48 36 -36 55 6 11 14 10 38 -4 17 -10 35 -28 41 -39 12 -24 16 -135 8 -243 -4 -58 -2 -69 8 -60 9 8 10 18 4 29 -6 11 -6 18 0 18 10 0 37 138 40 203 1 10 5 17 10 15 20 -7 111 -132 107 -145 -3 -8 -1 -11 4 -8 6 3 10 -1 10 -9 0 -9 3 -16 8 -16 13 0 44 -68 37 -81 -5 -7 -4 -10 2 -6 5 3 15 -11 22 -31 7 -20 16 -46 21 -57 4 -11 17 -54 28 -95 22 -77 18 -96 -19 -84 -18 5 -59 -38 -59 -61 0 -16 -30 -74 -31 -60 0 6 -4 0 -9 -12 -5 -13 -16 -23 -25 -23 -8 0 -15 -4 -15 -10 0 -5 -4 -10 -10 -10 -5 0 -18 -7 -27 -14 -94 -78 -132 -104 -156 -110 -26 -6 -28 -5 -22 15 6 19 5 20 -8 8 -8 -8 -13 -17 -11 -21 9 -14 -8 -57 -20 -52 -7 3 -32 -11 -56 -30 -24 -19 -48 -32 -54 -29 -5 3 -6 1 -2 -5 5 -8 -1 -13 -16 -14 -13 0 -27 -2 -33 -3 -5 -2 -18 -3 -27 -4 -10 0 -18 -5 -18 -10 0 -4 11 -6 25 -3 15 2 25 0 25 -7 0 -6 -9 -11 -21 -11 -11 0 -18 -4 -15 -8 2 -4 -8 -16 -23 -26 -20 -14 -28 -27 -28 -49 0 -17 -5 -33 -11 -35 -7 -2 -9 -8 -6 -13 6 -10 -18 -52 -45 -79 -9 -9 -36 -16 -70 -17 -62 -1 -347 -3 -426 -2 -156 3 -175 0 -175 -22 l0 -20 2053 3 c2950 4 3097 6 3097 23 0 17 2 16 -177 19 -67 1 -125 5 -129 9 -4 4 -14 2 -21 -5 -11 -9 -17 -9 -24 3 -5 8 -9 9 -9 3 0 -7 -225 -10 -723 -11 l-723 -1 -23 35 c-22 34 -22 35 -4 56 10 11 12 17 6 13 -8 -4 -41 20 -88 66 -92 88 -93 76 3 233 6 11 21 39 32 63 11 23 25 42 31 42 17 0 -8 27 -42 45 -16 8 -44 22 -61 32 -18 9 -45 25 -60 35 -16 11 -28 17 -28 14 0 -3 -23 6 -50 20 l-50 25 17 24 c19 26 38 33 66 27 13 -3 16 -9 11 -24 -5 -18 -4 -19 9 -7 8 8 13 17 10 22 -2 4 1 7 6 7 10 0 16 -37 11 -69 -1 -13 1 -13 14 -2 9 7 13 17 10 22 -3 5 -2 19 1 30 7 21 10 21 178 14 95 -3 235 -8 312 -11 77 -3 147 -5 155 -6 8 0 30 -15 49 -32 34 -30 34 -30 18 -4 -9 15 -17 30 -17 32 0 3 44 4 98 1 53 -2 187 -6 297 -10 110 -3 250 -7 310 -10 61 -3 189 -8 285 -11 332 -12 300 -13 300 10 0 17 -7 22 -36 24 -26 1 -33 -1 -28 -10 6 -10 4 -10 -7 -2 -15 12 -105 16 -809 35 -407 10 -426 12 -443 31 -9 11 -17 33 -17 49 0 16 -7 46 -16 67 -18 43 -32 147 -40 282 -4 72 0 119 16 195 11 55 20 104 20 108 0 5 4 6 8 3 5 -3 14 31 20 75 7 44 16 88 22 97 8 13 9 9 5 -18 -4 -24 -3 -30 3 -21 7 10 12 0 17 -36 3 -27 5 -53 4 -59 -1 -5 0 -20 1 -34 l2 -25 12 29 13 29 7 -28 c4 -15 9 -25 11 -23 2 2 -1 20 -7 40 -9 29 -8 44 6 78 9 23 12 39 6 35 -5 -3 -10 -13 -10 -21 0 -8 -5 -14 -10 -14 -10 0 -9 11 11 155 15 101 41 225 49 225 3 0 14 -14 24 -31 13 -23 16 -42 12 -82 l-5 -52 12 44 c7 25 18 46 24 48 6 2 39 -31 73 -74 34 -43 67 -78 73 -78 7 -1 11 -6 10 -13 -2 -7 2 -11 7 -9 12 2 85 -63 270 -243 130 -127 212 -184 97 -67 -35 35 -70 79 -80 98 -9 18 -52 78 -94 131 -82 101 -126 167 -103 153 7 -5 -14 43 -48 107 -65 123 -175 358 -197 423 -10 29 -12 58 -6 105 28 234 5 465 -70 694 -27 82 -49 152 -48 155 0 3 11 -16 25 -44 13 -27 24 -43 24 -34 0 8 -20 54 -44 102 l-45 87 572 0 c315 0 602 0 640 0 53 0 67 3 67 15 0 13 -119 15 -1012 15 -557 0 -1716 3 -2575 7 l-1563 6 0 -22z m685 -45 c-3 -11 -8 -39 -11 -61 -7 -50 -8 -52 -47 -64 -18 -5 -39 -12 -48 -15 -13 -6 -20 5 -33 49 -10 30 -21 55 -26 55 -9 0 -21 40 -15 50 2 4 45 7 95 7 89 1 92 0 85 -21z m-88 -163 c-9 -9 -20 -13 -24 -9 -4 4 -1 11 7 16 25 16 35 11 17 -7z m64 -6 c-1 -4 -1 -24 -1 -45 0 -32 -5 -41 -26 -51 -15 -6 -27 -10 -28 -9 -8 14 -26 61 -26 69 0 5 15 18 33 29 31 19 49 22 48 7z m806 -39 c-3 -7 -5 -2 -5 12 0 14 2 19 5 13 2 -7 2 -19 0 -25z m583 -30 c22 -24 29 -27 24 -13 -4 11 -11 26 -17 33 -6 8 -6 12 1 12 15 0 35 -38 28 -55 -7 -18 34 -113 52 -120 9 -3 7 6 -7 29 -44 71 -18 55 30 -19 87 -134 239 -315 263 -315 13 0 96 -81 96 -93 0 -5 -7 -7 -15 -3 -34 13 -12 -6 28 -24 47 -21 59 -31 102 -80 17 -19 21 -28 10 -20 -20 15 -20 15 0 -8 11 -13 32 -31 48 -40 16 -9 45 -39 63 -67 19 -27 34 -42 34 -34 0 9 -6 22 -14 28 -8 6 -23 34 -35 62 -12 27 -26 47 -30 44 -5 -2 -8 3 -7 13 0 10 -5 16 -13 14 -9 -2 -11 3 -7 13 3 9 2 14 -3 11 -10 -7 -54 62 -54 84 0 8 -15 40 -34 71 -18 30 -35 66 -38 79 -2 13 -13 33 -24 44 -24 27 -54 86 -44 87 5 1 13 1 18 -1 6 -1 -6 15 -25 36 -30 31 -19 26 75 -36 103 -68 163 -122 243 -216 27 -32 30 -33 12 -7 -12 18 -18 38 -14 44 4 7 3 9 -4 5 -6 -3 -14 -1 -18 5 -4 7 -3 9 4 5 6 -3 14 -1 17 4 9 15 55 -48 55 -74 0 -10 3 -16 7 -13 3 4 14 -10 24 -31 9 -20 29 -50 44 -67 14 -16 23 -24 19 -16 -5 9 -3 12 4 7 7 -4 12 -14 12 -22 0 -8 7 -28 15 -44 9 -18 11 -31 5 -35 -6 -3 -10 -22 -10 -42 l0 -36 30 42 c34 47 44 46 56 -1 l8 -33 4 45 c3 40 10 51 60 98 31 29 83 66 114 81 l58 29 19 -31 c20 -34 53 -109 49 -112 -2 -1 -25 -8 -53 -15 -27 -7 -67 -22 -88 -32 -21 -10 -42 -16 -47 -13 -5 3 -11 1 -15 -5 -10 -16 -28 -12 -21 6 3 8 2 12 -4 9 -21 -13 -60 -117 -65 -177 -10 -97 -11 -157 -2 -151 4 2 7 13 7 24 0 24 11 24 41 1 31 -24 193 -43 269 -33 45 7 57 5 68 -8 11 -14 11 -14 6 2 -7 18 10 24 21 7 4 -6 12 -7 18 -3 7 4 20 6 30 4 16 -2 18 2 12 21 -4 13 -13 26 -19 30 -6 4 -7 10 -4 14 9 8 146 -61 176 -89 20 -19 22 -30 22 -124 0 -84 -5 -119 -24 -177 -33 -97 -132 -296 -192 -386 -27 -40 -53 -80 -59 -88 -5 -9 -13 -21 -17 -26 -24 -36 -156 -182 -219 -241 -198 -188 -269 -233 -348 -222 -81 10 -594 188 -705 244 -142 71 -336 225 -373 296 -17 34 -11 46 14 26 11 -9 14 -10 9 -1 -11 19 -1 14 20 -10 10 -12 13 -18 7 -14 -31 18 -8 -5 42 -43 30 -23 55 -38 55 -34 -1 4 -23 33 -50 63 -48 53 -60 81 -20 45 11 -10 23 -15 26 -12 4 3 -18 32 -49 64 -46 49 -107 145 -107 170 0 4 18 -11 40 -32 37 -36 57 -45 28 -13 -7 8 -25 28 -41 44 -15 17 -37 55 -48 85 -41 108 -70 203 -65 216 3 8 -3 17 -16 22 -17 6 -10 9 33 14 80 10 96 9 96 -8 0 -8 -4 -12 -8 -10 -4 3 -9 -2 -13 -10 -7 -20 17 -19 61 2 30 14 36 14 44 2 13 -21 11 -26 -17 -48 -32 -25 -28 -26 15 -5 29 15 35 15 48 1 13 -13 11 -17 -15 -35 -16 -12 -38 -34 -47 -49 -18 -27 -18 -27 19 5 20 17 44 32 54 32 15 0 15 2 2 10 -32 21 22 10 62 -12 36 -20 39 -26 34 -52 -4 -19 -3 -27 3 -21 5 6 11 19 13 30 1 11 10 23 18 26 10 5 6 9 -15 14 -54 14 -109 47 -140 83 -34 41 -55 78 -55 98 0 24 17 15 24 -11 8 -32 73 -105 94 -105 9 0 6 7 -12 21 -31 24 -80 104 -72 117 3 5 20 15 38 23 24 10 33 10 36 1 7 -22 39 -55 55 -58 20 -3 20 -6 2 45 -8 23 -10 39 -5 36 6 -3 10 -1 10 6 0 21 14 0 37 -59 23 -55 25 -40 7 33 -5 20 -4 26 5 21 6 -4 11 -14 11 -22 0 -8 5 -14 11 -14 5 0 8 -4 5 -8 -3 -5 18 -10 47 -11 28 -1 55 -8 59 -14 5 -7 8 0 8 16 0 16 4 26 10 22 6 -4 10 6 10 22 0 23 2 25 11 13 8 -11 9 -4 5 28 -4 27 -3 41 3 38 5 -4 12 -2 15 2 3 5 21 9 41 10 38 2 36 7 39 -85 1 -24 -1 -43 -6 -43 -4 0 -7 -6 -5 -12 1 -7 -4 -12 -10 -11 -7 2 -13 -3 -13 -10 0 -8 -9 -22 -20 -32 -30 -27 -24 -39 10 -19 31 19 63 83 54 109 -4 8 -1 15 6 15 9 0 11 12 7 40 -3 22 -3 40 1 40 5 0 102 -60 102 -64 0 0 4 -15 9 -33 8 -27 5 -39 -21 -80 -17 -26 -24 -42 -16 -35 8 6 18 9 21 5 4 -3 7 1 7 10 0 9 5 16 12 14 7 -1 12 13 13 36 1 20 4 39 7 42 2 2 20 -9 39 -25 42 -36 61 -39 29 -5 -13 14 -19 25 -14 25 5 0 -9 17 -31 38 -22 20 -53 55 -70 77 -35 47 -65 74 -82 75 -7 0 -13 4 -13 10 0 11 -53 40 -72 40 -7 -1 3 -9 22 -20 19 -11 29 -19 23 -20 -7 0 -13 -5 -13 -11 0 -6 7 -8 16 -5 21 8 79 -23 67 -35 -11 -11 -45 -1 -38 11 7 12 -88 21 -149 14 -31 -4 -56 -11 -56 -16 0 -5 -4 -7 -9 -3 -5 3 -40 -6 -76 -20 -37 -14 -71 -22 -76 -19 -6 3 -21 -1 -34 -10 -28 -18 -39 -20 -30 -6 3 6 -1 7 -9 4 -9 -3 -15 -9 -14 -12 0 -4 -1 -10 -2 -14 -1 -5 -3 -13 -4 -20 0 -6 -7 -13 -15 -16 -8 -3 -11 0 -7 7 4 6 1 11 -9 11 -8 0 -18 -7 -21 -15 -3 -8 -14 -17 -25 -20 -11 -4 -17 -11 -14 -16 4 -5 -5 -9 -19 -9 -19 0 -26 -5 -26 -19 0 -15 -11 -22 -50 -30 -28 -6 -52 -11 -54 -11 -2 0 -6 9 -9 20 -4 14 0 20 11 21 12 0 11 3 -5 9 -33 13 -47 96 -34 200 6 46 13 85 15 87 4 4 86 -233 88 -254 1 -8 15 -13 35 -13 19 0 32 4 29 9 -4 5 0 12 6 14 9 4 10 6 1 6 -6 1 -14 -3 -17 -8 -17 -26 -68 23 -56 54 2 6 4 62 4 125 l1 115 80 -1 c111 -1 367 -20 475 -34 167 -23 216 -33 228 -48 10 -13 12 -13 13 -1 1 8 1 18 0 23 -1 5 5 6 13 3 16 -6 30 19 16 28 -6 4 -10 1 -10 -5 0 -7 -12 -3 -27 8 -53 36 -114 45 -338 46 -118 0 -215 4 -215 8 0 3 -15 2 -34 -3 -21 -6 -50 -6 -75 0 -23 5 -56 5 -75 1 -52 -12 -58 -2 -50 71 5 35 7 68 6 72 -1 5 2 6 7 3 5 -4 12 8 16 26 4 18 17 60 30 93 28 73 42 127 26 105 -19 -27 -13 11 9 55 20 39 21 36 5 -15 -12 -41 5 -16 25 36 l19 49 2 -45 c1 -25 1 -51 0 -57 -1 -7 3 -13 9 -13 12 0 14 -37 1 -42 -11 -4 -21 -88 -11 -88 5 0 11 17 13 38 l4 37 1 -41 c1 -22 -3 -45 -9 -51 -7 -7 -9 -22 -4 -40 7 -26 8 -26 15 -8 7 15 9 10 9 -20 0 -31 -2 -36 -9 -20 -8 18 -9 17 -9 -8 -1 -16 4 -26 12 -25 7 2 11 -5 9 -16 -2 -11 0 -35 3 -55 6 -31 9 -33 16 -16 4 11 6 38 5 60 -2 22 -1 31 1 20 3 -11 9 -24 15 -30 7 -7 9 -2 4 15 -15 53 -24 148 -21 220 3 79 41 275 77 398 18 61 24 72 40 67 22 -7 25 13 3 21 -8 4 -15 10 -15 15 0 15 8 10 40 -23z m-1405 -48 c-3 -5 -14 -10 -23 -10 -15 0 -15 2 -2 10 20 13 33 13 25 0z m4 -67 c0 -40 -2 -44 -10 -25 -5 13 -7 28 -3 33 3 5 0 9 -5 9 -6 0 -11 7 -11 15 0 8 7 15 15 15 11 0 15 -12 14 -47z m1851 -18 l25 -28 -30 18 c-19 11 -9 -3 29 -39 72 -68 65 -74 -10 -9 -32 27 -53 52 -50 60 3 7 -7 25 -22 39 l-27 27 30 -21 c17 -11 41 -32 55 -47z m-1200 -32 c-11 -17 -11 -17 -6 0 3 10 6 24 7 30 0 9 2 9 5 0 3 -7 0 -20 -6 -30z m1811 -191 c28 -23 41 -18 17 6 -7 7 -10 12 -7 12 3 0 25 -21 49 -47 25 -26 30 -35 13 -19 -43 39 -55 25 -16 -17 16 -17 39 -45 51 -61 12 -16 22 -24 22 -19 0 6 -7 16 -15 23 -8 7 -15 18 -15 24 0 6 12 -2 26 -18 29 -33 30 -31 -66 -83 -69 -36 -113 -64 -122 -78 -5 -6 -8 -6 -8 2 0 19 12 43 19 39 12 -8 -1 68 -14 84 -7 8 -16 44 -19 79 -7 61 -45 152 -93 221 -10 14 20 -9 66 -50 46 -41 96 -85 112 -98z m-269 94 c7 -13 7 -16 -1 -12 -6 4 -18 22 -27 39 -14 30 -14 31 1 12 9 -11 21 -28 27 -39z m1147 -125 c1 -87 -10 -52 -14 45 -3 69 -2 80 5 49 5 -22 9 -64 9 -94z m-1085 66 c34 -44 89 -185 89 -224 -1 -21 3 -31 10 -26 5 3 7 1 4 -5 -4 -5 1 -24 10 -40 14 -25 15 -34 5 -56 -6 -14 -16 -26 -21 -26 -12 0 -61 147 -61 185 0 23 -3 27 -10 15 -11 -17 -13 -9 -14 70 -1 32 -5 44 -14 42 -8 -1 -11 2 -7 8 4 6 2 16 -4 23 -16 20 -31 67 -21 67 5 0 20 -15 34 -33z m-1597 -19 c-3 -8 -6 -5 -6 6 -1 11 2 17 5 13 3 -3 4 -12 1 -19z m2131 -45 c34 -37 34 -37 12 -47 -18 -8 -24 -6 -33 10 -6 10 -12 21 -12 24 0 3 -6 15 -13 28 -20 36 6 27 46 -15z m-108 -33 c35 -44 35 -44 4 -54 -18 -5 -24 0 -38 37 -27 72 -15 78 34 17z m175 -40 c10 -11 14 -20 10 -20 -5 0 3 -12 17 -27 14 -16 36 -48 48 -73 12 -25 30 -54 40 -65 10 -11 21 -30 25 -42 5 -18 2 -23 -12 -23 -15 0 -16 2 -3 10 19 12 4 13 -18 1 -11 -6 -35 -5 -62 1 -25 6 -64 11 -88 13 -62 4 -72 11 -73 47 -1 22 -3 26 -6 13 -4 -14 -12 -1 -29 45 -21 59 -22 65 -6 77 26 19 35 16 82 -33 25 -25 54 -50 65 -55 19 -10 19 -10 -1 8 -33 29 -87 103 -80 110 4 4 27 -13 52 -38 26 -24 42 -35 36 -23 -6 11 -18 26 -26 34 -9 7 -16 19 -16 27 0 8 -4 11 -10 8 -5 -3 -10 -1 -10 5 0 6 11 8 28 4 21 -4 24 -3 12 5 -8 6 -10 11 -4 11 6 0 19 -9 29 -20z m-2828 -22 c-3 -7 -5 -2 -5 12 0 14 2 19 5 13 2 -7 2 -19 0 -25z m10 -90 c-3 -8 -6 -5 -6 6 -1 11 2 17 5 13 3 -3 4 -12 1 -19z m3330 -135 c-3 -10 -5 -4 -5 12 0 17 2 24 5 18 2 -7 2 -21 0 -30z m-337 17 c0 -5 -2 -10 -4 -10 -3 0 -8 5 -11 10 -3 6 -1 10 4 10 6 0 11 -4 11 -10z m10 -30 c0 -5 -4 -10 -10 -10 -5 0 -10 5 -10 10 0 6 5 10 10 10 6 0 10 -4 10 -10z m-31 -4 c-2 -2 -17 -6 -34 -10 -22 -5 -26 -4 -15 4 14 9 59 15 49 6z m-159 -44 c18 -15 23 -29 24 -75 0 -62 4 -65 17 -15 l8 33 -3 -35 c-8 -69 -15 -99 -31 -123 -9 -15 -13 -32 -8 -43 7 -18 6 -18 -11 -1 -17 16 -17 18 3 43 35 45 23 56 -15 15 -69 -77 -185 -107 -298 -77 -33 9 -64 20 -69 25 -9 9 -28 83 -22 89 2 2 22 -10 46 -27 23 -17 48 -31 56 -31 15 0 16 26 2 55 -7 16 -8 13 -4 -12 2 -18 2 -33 -1 -33 -21 0 -44 26 -50 58 -7 35 -8 35 -15 12 -6 -20 -7 -21 -8 -5 0 11 4 27 9 35 8 12 11 11 16 -8 5 -18 9 -20 15 -10 6 9 9 4 10 -17 1 -16 3 -23 6 -14 4 15 36 33 55 30 4 0 5 6 2 14 -4 8 -2 15 4 15 5 0 7 12 4 26 -4 20 -2 25 8 19 10 -6 11 -1 6 21 -4 16 -4 26 0 22 3 -4 15 -3 25 3 15 8 19 6 19 -6 0 -10 5 -13 12 -9 8 5 9 -2 5 -24 -4 -18 -3 -32 2 -32 4 0 9 -21 10 -47 l1 -46 -21 19 c-22 19 -22 19 -10 -3 9 -18 8 -24 -5 -31 -12 -7 -13 -11 -5 -17 13 -8 31 11 57 59 12 22 15 46 11 93 -5 61 -4 63 19 63 16 0 24 -6 25 -17 0 -14 2 -13 9 5 12 28 58 30 90 4z m50 -2 c0 -5 -5 -10 -11 -10 -5 0 -7 5 -4 10 3 6 8 10 11 10 2 0 4 -4 4 -10z m134 -12 c13 -50 7 -65 -25 -72 -45 -9 -71 -7 -64 3 3 5 -3 12 -12 14 -10 3 -5 5 13 6 29 1 54 16 54 33 0 4 -17 8 -37 9 l-38 1 33 8 c18 4 36 10 39 14 13 13 31 5 37 -16z m-2036 -78 c1 -23 0 -23 -8 -5 -5 11 -8 36 -8 55 l0 35 8 -30 c4 -16 8 -41 8 -55z m1977 50 c-3 -5 -11 -10 -16 -10 -6 0 -7 5 -4 10 3 6 11 10 16 10 6 0 7 -4 4 -10z m-278 -62 c-3 -8 -6 -5 -6 6 -1 11 2 17 5 13 3 -3 4 -12 1 -19z m267 -9 c-7 -12 -2 -11 34 7 41 20 55 11 36 -24 -7 -15 -14 -32 -14 -39 0 -12 -30 -7 -40 7 -9 13 -53 23 -46 11 4 -6 0 -11 -8 -11 -24 0 -19 21 6 28 l22 5 -22 8 c-32 12 -27 26 8 21 16 -2 27 -8 24 -13z m486 -103 c0 -12 -5 -7 -19 24 -11 24 -11 24 3 6 9 -11 16 -24 16 -30z m-423 12 c12 -9 35 -99 28 -107 -4 -3 -42 24 -93 67 -22 19 -23 21 -4 12 41 -20 23 6 -20 28 l-43 22 60 -6 c33 -3 65 -10 72 -16z m-1989 -13 c-3 -3 -9 2 -12 12 -6 14 -5 15 5 6 7 -7 10 -15 7 -18z m-932 -31 c0 -19 -3 -37 -8 -40 -4 -3 -8 16 -8 42 0 54 14 52 16 -2z m1449 26 c-3 -5 -16 -10 -28 -9 -20 1 -20 2 3 9 14 4 26 8 28 9 2 1 0 -3 -3 -9z m45 6 c0 -3 -4 -8 -10 -11 -5 -3 -10 -1 -10 4 0 6 5 11 10 11 6 0 10 -2 10 -4z m1519 -160 c-3 -3 -11 5 -18 17 -13 21 -12 21 5 5 10 -10 16 -20 13 -22z m-3042 -8 c-3 -8 -6 -5 -6 6 -1 11 2 17 5 13 3 -3 4 -12 1 -19z m0 -40 c-3 -8 -6 -5 -6 6 -1 11 2 17 5 13 3 -3 4 -12 1 -19z m-3 -93 c-4 -41 -8 -85 -9 -97 -1 -13 -3 -29 -4 -35 0 -7 -6 -12 -13 -10 -6 1 -15 -16 -20 -37 -12 -56 -22 -60 -14 -7 4 24 14 50 23 56 10 8 14 20 10 34 -3 11 -1 21 4 21 5 0 8 8 7 18 -3 22 12 132 18 132 3 0 2 -34 -2 -75z m710 66 c4 -5 -3 -7 -14 -4 -23 6 -26 13 -6 13 8 0 17 -4 20 -9z m43 -7 c-3 -3 -12 -4 -19 -1 -8 3 -5 6 6 6 11 1 17 -2 13 -5z m123 -14 c0 -9 -99 -4 -109 6 -2 2 21 4 52 4 32 0 57 -4 57 -10z m-640 -158 c6 -122 5 -334 -1 -338 -5 -3 -15 -2 -21 2 -7 5 -19 9 -28 10 -55 8 -86 23 -62 31 17 6 15 20 -4 27 -9 3 -12 2 -9 -5 4 -6 -1 -19 -11 -30 -18 -20 -40 -27 -28 -8 5 8 1 8 -14 0 -16 -8 -23 -8 -28 1 -4 6 -2 14 4 16 7 2 12 8 12 14 0 6 10 25 23 42 12 17 29 43 36 59 8 15 18 27 22 27 11 0 17 -74 6 -87 -6 -9 -6 -13 2 -13 6 0 11 6 11 13 0 6 8 3 16 -8 16 -19 16 -19 8 5 -9 31 -9 39 2 65 7 17 6 18 -8 7 -30 -24 -31 31 -2 103 26 64 41 86 31 42 -4 -12 -3 -28 1 -34 4 -7 8 5 9 27 1 22 5 45 8 50 9 14 24 3 25 -18z m-229 -72 l-10 -25 0 25 c-1 14 3 36 7 50 l7 25 3 -25 c2 -14 -2 -37 -7 -50z m-41 -84 c-5 -13 -6 -26 -3 -29 3 -3 1 -11 -3 -18 -4 -7 -9 -27 -11 -44 -4 -40 -10 -55 -23 -55 -6 0 -8 10 -4 24 8 32 -21 43 -37 13 -11 -20 -11 -21 5 -8 18 15 32 9 21 -8 -3 -6 -15 -11 -26 -11 -16 0 -19 4 -14 23 4 12 16 29 28 38 11 9 17 20 14 25 -3 5 2 18 10 29 15 20 15 20 8 -2 -3 -13 -4 -23 -1 -23 3 0 10 18 16 40 6 22 15 38 20 35 6 -3 6 -15 0 -29z m21 -22 c-9 -28 -9 -29 -10 -3 -1 14 2 29 6 32 11 12 13 2 4 -29z m-127 -80 c-3 -12 -15 -21 -30 -22 -32 -2 -31 9 3 30 32 19 34 19 27 -8z m489 -104 c3 -11 1 -20 -4 -20 -5 0 -9 9 -9 20 0 11 2 20 4 20 2 0 6 -9 9 -20z m-93 -25 c7 -9 8 -15 2 -15 -5 0 -12 7 -16 15 -3 8 -4 15 -2 15 2 0 9 -7 16 -15z m329 -77 c-7 -13 -7 -18 2 -16 6 2 16 -6 22 -16 7 -11 24 -33 39 -49 15 -16 25 -33 23 -38 -7 -10 -65 -9 -65 2 0 4 -10 9 -22 11 -20 3 -23 10 -26 52 -4 57 1 73 22 73 11 0 13 -5 5 -19z m327 -56 c-9 -8 -26 10 -26 26 1 15 2 15 15 -2 8 -11 13 -21 11 -24z m1984 -34 l23 -57 -17 -117 c-10 -64 -16 -118 -13 -120 2 -3 7 14 11 37 4 23 13 51 21 62 8 12 15 30 15 41 0 33 17 6 54 -83 19 -45 43 -93 53 -105 11 -13 23 -34 26 -48 6 -21 3 -24 -16 -22 -12 1 -50 3 -84 3 -53 1 -63 4 -64 19 -1 16 -2 16 -6 0 -4 -15 -17 -18 -94 -17 -49 1 -89 6 -89 11 0 5 -5 6 -11 2 -19 -12 -193 -4 -201 9 -6 9 -8 9 -8 0 0 -7 -6 -13 -14 -13 -8 0 -13 9 -12 24 0 13 3 23 5 20 2 -2 13 13 23 34 29 53 142 222 146 217 3 -2 -6 -20 -18 -40 -12 -20 -20 -38 -18 -41 3 -2 18 20 34 51 16 30 32 55 35 55 11 0 20 -67 26 -184 l5 -109 24 28 c22 26 24 26 24 7 0 -11 5 -24 10 -27 13 -8 12 1 -4 55 -11 37 -11 54 0 100 25 101 62 207 64 180 1 -14 8 2 17 39 8 35 18 59 22 55 5 -5 19 -35 31 -66z m-2072 -186 c2 -200 2 -201 -22 -229 l-25 -28 1 35 c1 19 6 38 12 42 8 5 7 8 -1 8 -8 0 -13 15 -13 41 0 22 3 38 8 36 4 -3 7 5 7 18 0 13 -3 21 -7 18 -5 -2 -8 29 -7 69 0 44 3 65 8 54 10 -26 19 -9 15 29 -1 17 -3 30 -4 30 -1 0 -4 27 -5 60 -4 59 -4 60 14 39 15 -19 18 -47 19 -222z m82 187 c0 -6 -4 -7 -10 -4 -5 3 -10 11 -10 16 0 6 5 7 10 4 6 -3 10 -11 10 -16z m295 -51 c11 -10 47 -39 80 -65 33 -25 79 -64 102 -86 22 -21 47 -37 54 -35 7 2 -5 14 -26 26 -20 13 -35 25 -32 28 3 3 18 -2 34 -11 25 -15 26 -15 8 -1 -11 9 -29 23 -40 31 -11 8 23 -7 76 -34 53 -27 115 -55 137 -62 23 -7 42 -16 42 -20 0 -4 16 -13 35 -19 19 -6 35 -16 35 -21 0 -5 8 -9 18 -9 10 0 54 -10 98 -21 43 -12 86 -21 94 -21 28 1 120 -31 120 -41 0 -6 -19 -35 -42 -66 -24 -31 -64 -88 -89 -127 -26 -40 -52 -75 -58 -78 -6 -4 -11 -14 -11 -21 0 -8 -13 -36 -30 -62 -16 -26 -30 -57 -30 -70 0 -13 -6 -23 -12 -23 -25 0 -225 216 -288 310 -35 52 -74 109 -88 125 -42 52 -185 205 -239 257 -51 49 -61 74 -25 61 9 -4 42 -26 72 -50 63 -49 87 -57 47 -15 -15 16 -24 32 -20 37 5 4 3 5 -3 2 -11 -6 -23 11 -30 40 -1 7 -12 26 -23 42 -36 51 -23 50 34 -1z m-194 19 c-6 -8 -9 -16 -6 -18 2 -3 -5 -10 -15 -17 -29 -18 -27 11 3 31 28 20 33 21 18 4z m-423 -13 c6 -1 31 -2 55 -2 43 -2 44 -3 67 -59 14 -32 25 -60 25 -63 1 -3 8 -19 18 -37 13 -25 16 -54 14 -142 -2 -113 -8 -128 -42 -115 -16 7 -48 101 -39 115 3 5 0 9 -5 9 -6 0 -11 7 -11 15 0 9 -9 40 -19 70 -10 29 -16 56 -13 59 3 3 1 6 -5 6 -5 0 -20 24 -34 53 -13 28 -30 58 -36 65 -7 7 -13 17 -13 21 0 13 13 22 19 14 3 -5 12 -8 19 -9z m2121 -36 c-1 -42 -1 -42 -10 -13 -5 17 -7 36 -4 43 9 24 15 11 14 -30z m-1795 -20 c4 -21 2 -34 -6 -40 -10 -6 -10 -8 0 -8 17 0 15 -115 -2 -155 -12 -27 -14 -16 -15 108 -1 131 8 170 23 95z m223 -75 c56 -60 110 -118 121 -130 10 -13 46 -52 80 -87 33 -36 77 -89 96 -118 89 -133 110 -159 202 -255 100 -102 218 -203 239 -203 7 0 30 -13 51 -28 34 -25 41 -37 51 -87 14 -64 6 -88 -22 -65 -18 15 -21 35 -3 24 7 -5 9 -2 5 9 -3 9 -11 34 -17 56 -6 23 -16 41 -23 41 -7 0 -32 -32 -56 -70 l-44 -71 -204 2 c-131 2 -206 6 -211 13 -5 6 -23 46 -40 88 -34 83 -78 182 -93 211 -5 10 -7 22 -4 27 3 5 1 11 -4 14 -5 4 -19 27 -32 54 -61 128 -143 226 -241 288 -21 13 -45 36 -55 50 -16 25 -16 28 15 88 17 33 34 73 38 89 3 15 9 27 13 27 4 0 7 13 6 30 -1 24 1 28 12 18 10 -8 11 -13 3 -18 -7 -5 -6 -11 5 -20 13 -11 15 -10 9 6 -6 16 -2 15 22 -6 l29 -25 -20 25 c-11 13 -26 31 -33 39 -7 7 -21 25 -30 39 -15 23 -15 25 3 38 10 8 22 14 25 14 3 0 52 -48 107 -107z m1600 -135 c-3 -7 -5 -2 -5 12 0 14 2 19 5 13 2 -7 2 -19 0 -25z m-302 -8 c-9 -18 -13 -41 -10 -53 4 -15 3 -18 -3 -9 -7 11 -10 11 -15 -2 -7 -18 -33 -21 -43 -5 -5 9 71 99 83 99 2 0 -4 -14 -12 -30z m-1535 -54 c0 -2 -8 -10 -17 -17 -16 -13 -17 -12 -4 4 13 16 21 21 21 13z m1383 -70 c-4 -18 -10 -22 -26 -18 -20 5 -20 4 -8 -11 7 -10 11 -27 8 -39 l-6 -23 17 22 17 23 57 -29 c92 -47 207 -112 212 -120 3 -4 -12 -24 -32 -46 -20 -21 -37 -43 -37 -49 -1 -23 -27 -86 -36 -86 -5 0 -9 -5 -9 -10 0 -22 -33 -60 -44 -52 -6 5 -26 12 -44 16 l-34 6 49 -45 c26 -24 53 -44 59 -45 6 0 28 -15 50 -34 21 -19 52 -45 68 -58 l28 -24 -32 -47 -32 -48 -245 2 -245 3 -10 25 c-5 14 -11 35 -12 46 -7 47 -20 81 -37 98 -11 10 -19 24 -19 32 0 9 -18 51 -39 94 -33 66 -38 85 -31 113 10 43 31 88 42 88 4 0 8 9 8 20 0 11 4 20 10 20 5 0 16 16 25 35 9 19 27 45 38 58 12 12 33 40 47 60 22 32 30 37 65 36 22 0 58 -6 80 -14 50 -18 50 -18 35 0 -10 12 -10 15 4 15 9 0 16 -6 16 -12 0 -7 5 -5 11 5 15 26 37 22 32 -7z m-1393 -27 c0 -6 -4 -8 -9 -5 -5 4 -11 1 -13 -6 -3 -8 -9 -8 -24 0 -18 11 -18 11 4 12 12 0 22 5 22 11 0 5 5 7 10 4 6 -3 10 -11 10 -16z m92 -7 c11 -13 11 -15 -4 -9 -10 3 -18 2 -18 -4 0 -6 -4 -8 -9 -4 -5 3 -12 1 -16 -5 -3 -5 0 -10 7 -11 18 -1 35 -5 84 -18 40 -11 114 -73 114 -96 0 -7 9 -20 20 -30 18 -17 46 -81 42 -97 -1 -5 2 -8 8 -8 12 0 44 -60 36 -68 -3 -3 0 -12 6 -20 33 -39 10 -37 -40 4 -56 46 -56 46 10 -17 69 -67 84 -88 92 -134 3 -15 13 -36 22 -46 9 -11 25 -41 34 -69 l17 -50 -34 0 c-19 0 -33 5 -34 13 0 10 -2 10 -6 0 -9 -23 -61 -15 -79 12 -9 14 -20 25 -25 25 -5 0 -18 9 -28 19 -21 21 -117 53 -171 56 -19 2 -42 5 -50 8 -8 3 -33 8 -55 11 -120 15 -182 30 -239 56 -35 17 -76 30 -91 30 -36 0 -30 -7 13 -13 39 -6 107 -47 79 -47 -10 0 -27 5 -37 10 -11 6 -21 6 -24 1 -6 -8 38 -21 94 -27 14 -1 70 -12 125 -23 109 -22 142 -25 110 -10 -18 8 -17 8 5 6 14 -1 24 -8 23 -14 -3 -17 35 -23 47 -8 6 8 19 11 27 8 14 -6 14 -7 -3 -14 -19 -7 -19 -7 1 -13 29 -10 146 -70 151 -78 2 -3 -220 -6 -494 -6 l-498 0 1 23 c0 12 7 30 15 41 8 10 -5 1 -28 -21 -36 -34 -49 -39 -93 -42 l-52 -2 24 25 c27 28 148 99 156 90 3 -3 -5 -10 -18 -15 -13 -5 -42 -29 -64 -52 -27 -30 -30 -36 -10 -18 17 14 47 38 68 53 21 15 34 32 31 38 -5 7 -2 9 8 6 8 -4 28 2 44 11 26 16 55 26 104 38 8 2 33 5 55 7 22 2 39 9 38 15 -2 6 9 13 25 17 46 10 48 12 13 13 l-33 1 6 49 c3 27 15 71 27 98 l20 48 -20 -22 c-12 -12 -21 -29 -21 -37 0 -8 -5 -18 -11 -21 -6 -4 -8 -13 -5 -20 2 -7 -3 -29 -13 -48 -13 -26 -14 -34 -4 -30 14 6 15 -2 4 -31 -7 -17 -9 -17 -22 -4 -11 12 -18 13 -34 4 -11 -6 -23 -15 -26 -19 -3 -4 -23 -11 -45 -14 -66 -11 -196 -78 -276 -144 -87 -72 -86 -44 2 50 28 30 53 65 57 79 6 25 60 81 78 81 6 0 -3 -11 -20 -24 -16 -14 -26 -25 -21 -25 18 0 55 42 49 56 -6 17 13 19 21 2 3 -7 4 -4 3 7 -1 14 4 20 18 20 11 0 20 5 20 10 1 24 16 36 31 24 11 -9 14 -7 14 12 0 19 2 21 10 9 8 -13 10 -12 10 3 0 10 7 20 15 23 8 4 15 10 15 15 0 20 141 130 198 154 17 8 32 21 32 30 0 10 5 13 12 9 6 -4 8 -3 5 3 -4 6 3 29 14 52 16 33 23 40 37 33 9 -5 23 -7 30 -5 15 6 16 -9 0 -25 -6 -6 -9 -15 -5 -18 3 -4 13 1 22 10 28 28 58 41 63 26 3 -9 6 -9 11 -1 6 9 22 8 62 -3 55 -14 65 -12 71 14 8 37 47 50 70 22z m-732 -346 c0 -2 -8 -10 -17 -17 -16 -13 -17 -12 -4 4 13 16 21 21 21 13z m-169 -204 c-47 -61 -69 -73 -25 -15 21 28 43 52 47 52 5 1 -5 -16 -22 -37z m1051 -47 c19 -4 88 -64 88 -76 0 -5 -25 7 -55 26 -30 20 -66 40 -80 45 -14 5 -25 14 -25 20 0 6 10 6 28 -1 15 -6 35 -12 44 -14z m-947 -65 c-3 -5 -11 -10 -16 -10 -6 0 -7 5 -4 10 3 6 11 10 16 10 6 0 7 -4 4 -10z"
    />
    <path
      d="M2208 3052 c13 -17 28 -35 34 -39 7 -3 2 8 -10 25 -13 17 -28 35 -34 39 -7 3 -2 -8 10 -25z"
    />
    <path
      d="M2569 2883 c16 -28 37 -53 45 -53 17 0 3 29 -25 49 -25 19 -29 20 -20 4z"
    />
    <path
      d="M2304 2862 c12 -19 106 -92 119 -92 7 0 -1 9 -18 19 -16 10 -39 27 -50 37 -36 33 -59 50 -51 36z"
    />
    <path
      d="M2430 2827 c0 -2 15 -16 33 -33 l32 -29 -29 33 c-28 30 -36 37 -36 29z"
    />
    <path
      d="M2650 2805 c13 -14 26 -25 28 -25 3 0 -5 11 -18 25 -13 14 -26 25 -28 25 -3 0 5 -11 18 -25z"
    />
    <path d="M2650 2771 c0 -6 4 -13 10 -16 6 -3 7 1 4 9 -7 18 -14 21 -14 7z" />
    <path
      d="M2640 2733 c0 -6 8 -17 18 -24 16 -13 16 -13 2 6 -8 11 -16 22 -17 24 -2 2 -3 0 -3 -6z"
    />
    <path
      d="M2680 2720 c6 -11 13 -20 16 -20 2 0 0 9 -6 20 -6 11 -13 20 -16 20 -2 0 0 -9 6 -20z"
    />
    <path d="M2860 2711 c0 -6 4 -13 10 -16 6 -3 7 1 4 9 -7 18 -14 21 -14 7z" />
    <path
      d="M3295 2680 c-3 -6 1 -7 9 -4 18 7 21 14 7 14 -6 0 -13 -4 -16 -10z"
    />
    <path
      d="M3255 2660 c-3 -6 1 -7 9 -4 18 7 21 14 7 14 -6 0 -13 -4 -16 -10z"
    />
    <path
      d="M3192 2620 c-23 -17 -42 -33 -42 -36 0 -3 20 9 45 27 41 30 51 39 42 39 -2 0 -23 -14 -45 -30z"
    />
    <path d="M1722 2615 c0 -16 2 -22 5 -12 2 9 2 23 0 30 -3 6 -5 -1 -5 -18z" />
    <path
      d="M2791 2455 c-1 -15 24 -83 33 -92 5 -5 5 3 1 17 -11 38 -33 86 -34 75z"
    />
    <path
      d="M2101 2369 c-18 -6 -31 -12 -29 -14 2 -2 26 2 53 10 28 7 41 13 30 13 -11 0 -35 -4 -54 -9z"
    />
    <path
      d="M2024 2314 c-18 -14 -18 -14 6 -3 31 14 36 19 24 19 -6 0 -19 -7 -30 -16z"
    />
    <path
      d="M1948 2294 c-38 -20 -36 -29 2 -9 35 18 44 19 34 3 -4 -7 -3 -8 5 -4 11 7 6 26 -7 26 -4 -1 -19 -8 -34 -16z"
    />
    <path d="M2251 2244 c0 -11 3 -14 6 -6 3 7 2 16 -1 19 -3 4 -6 -2 -5 -13z" />
    <path d="M2231 2234 c0 -11 3 -14 6 -6 3 7 2 16 -1 19 -3 4 -6 -2 -5 -13z" />
    <path d="M2241 2194 c0 -11 3 -14 6 -6 3 7 2 16 -1 19 -3 4 -6 -2 -5 -13z" />
    <path d="M2261 2194 c0 -11 3 -14 6 -6 3 7 2 16 -1 19 -3 4 -6 -2 -5 -13z" />
    <path
      d="M1996 2165 c10 -48 10 -60 -3 -57 -24 4 -13 -14 20 -32 l32 -18 -24 20 c-16 13 -20 21 -12 26 6 4 11 2 11 -5 0 -7 2 -10 5 -8 2 3 -5 27 -16 55 -11 27 -17 36 -13 19z"
    />
    <path
      d="M3650 2171 c0 -11 5 -23 10 -26 6 -3 10 3 10 14 0 11 -4 23 -10 26 -5 3 -10 -3 -10 -14z"
    />
    <path d="M2251 2154 c0 -11 3 -14 6 -6 3 7 2 16 -1 19 -3 4 -6 -2 -5 -13z" />
    <path d="M2271 2154 c0 -11 3 -14 6 -6 3 7 2 16 -1 19 -3 4 -6 -2 -5 -13z" />
    <path
      d="M2555 2134 c17 -13 29 -30 27 -37 -3 -9 -1 -9 9 0 9 9 5 17 -17 37 -16 14 -33 25 -39 25 -5 0 4 -11 20 -25z"
    />
    <path
      d="M2231 2140 c0 -8 4 -22 9 -30 12 -18 12 -2 0 25 -6 13 -9 15 -9 5z"
    />
    <path
      d="M2475 2120 c-8 -13 5 -13 25 0 13 8 13 10 -2 10 -9 0 -20 -4 -23 -10z"
    />
    <path
      d="M2866 2063 c-3 -3 -6 -13 -6 -22 0 -12 2 -13 9 -3 11 17 66 -45 87 -99 9 -21 20 -39 24 -39 5 0 12 -9 15 -20 3 -11 12 -20 20 -20 7 0 16 -7 19 -16 4 -9 9 -14 12 -11 9 8 -15 47 -29 47 -7 0 -20 13 -30 29 -22 37 -22 47 0 30 10 -9 7 0 -8 23 -13 20 -27 34 -32 31 -5 -3 -11 3 -14 13 -6 22 -58 66 -67 57z m102 -108 c-3 -3 -9 2 -12 12 -6 14 -5 15 5 6 7 -7 10 -15 7 -18z"
    />
    <path
      d="M1771 2015 c-67 -37 -84 -61 -21 -28 53 27 90 53 73 53 -4 -1 -28 -12 -52 -25z"
    />
    <path d="M2345 2014 l-30 -26 33 22 c17 12 32 23 32 26 0 7 -4 5 -35 -22z" />
    <path
      d="M1960 2006 c0 -2 7 -9 15 -16 9 -7 15 -8 15 -2 0 5 -7 12 -15 16 -8 3 -15 4 -15 2z"
    />
    <path
      d="M1845 1980 c-3 -5 -2 -10 4 -10 5 0 13 5 16 10 3 6 2 10 -4 10 -5 0 -13 -4 -16 -10z"
    />
    <path
      d="M1680 1955 c0 -5 5 -17 10 -25 5 -8 10 -10 10 -5 0 6 -5 17 -10 25 -5 8 -10 11 -10 5z"
    />
    <path
      d="M1906 1925 c-23 -35 -63 -127 -71 -165 -5 -23 -11 -30 -22 -25 -13 4 -14 3 -3 -10 7 -9 14 -14 16 -12 2 2 15 34 30 73 14 38 41 88 59 110 31 37 35 54 14 54 -3 0 -14 -11 -23 -25z"
    />
    <path
      d="M2065 1921 c-3 -6 -1 -11 4 -11 6 0 11 -7 11 -15 0 -12 3 -13 19 -3 15 9 23 9 38 -3 17 -13 17 -13 2 11 -17 26 -62 39 -74 21z"
    />
    <path
      d="M2175 1920 c-19 -8 -19 -9 2 -9 12 -1 25 4 28 9 7 12 -2 12 -30 0z"
    />
    <path d="M2043 1880 c0 -25 2 -35 4 -22 2 12 2 32 0 45 -2 12 -4 2 -4 -23z" />
    <path
      d="M1723 1865 c14 -27 33 -59 42 -70 9 -11 1 7 -16 40 -40 74 -60 98 -26 30z"
    />
    <path
      d="M1973 1898 c-15 -20 -25 -38 -20 -38 3 0 12 11 21 25 17 26 16 35 -1 13z"
    />
    <path
      d="M3026 1765 c-3 -8 -1 -15 4 -15 6 0 10 7 10 15 0 8 -2 15 -4 15 -2 0 -6 -7 -10 -15z"
    />
    <path
      d="M2930 1489 c0 -5 5 -7 11 -3 6 3 14 1 18 -5 5 -7 15 -9 26 -5 18 7 18 8 -1 15 -28 11 -54 10 -54 -2z"
    />
    <path
      d="M3065 1460 c-13 -22 -86 -50 -128 -50 -59 0 -108 -10 -101 -21 3 -5 -2 -6 -11 -3 -27 11 -185 -39 -185 -58 0 -9 27 1 57 20 13 8 69 18 134 23 119 10 192 27 246 59 19 11 44 20 55 20 30 0 19 6 -24 14 -22 4 -39 2 -43 -4z m-152 -67 c-7 -2 -19 -2 -25 0 -7 3 -2 5 12 5 14 0 19 -2 13 -5z"
    />
    <path
      d="M3023 1254 c-12 -13 -33 -24 -47 -24 -14 0 -28 -5 -32 -11 -4 -8 4 -9 27 -4 46 10 67 22 79 45 14 27 0 23 -27 -6z"
    />
    <path
      d="M2923 2861 c0 -17 3 -27 7 -21 3 6 17 -12 30 -40 13 -27 25 -48 27 -46 3 2 -11 34 -30 71 -30 61 -34 65 -34 36z"
    />
    <path
      d="M3420 2896 c0 -2 8 -10 18 -17 15 -13 16 -12 3 4 -13 16 -21 21 -21 13z"
    />
    <path
      d="M3361 2745 c1 -19 18 -51 18 -35 0 8 -4 22 -9 30 -5 8 -9 11 -9 5z"
    />
    <path d="M3211 2374 c0 -11 3 -14 6 -6 3 7 2 16 -1 19 -3 4 -6 -2 -5 -13z" />
    <path
      d="M3220 2327 c0 -10 8 -17 18 -17 9 0 13 4 7 8 -5 4 -13 11 -17 16 -5 5 -8 2 -8 -7z"
    />
    <path
      d="M905 1810 c3 -5 8 -10 11 -10 2 0 4 5 4 10 0 6 -5 10 -11 10 -5 0 -7 -4 -4 -10z"
    />
    <path d="M901 1774 c0 -11 3 -14 6 -6 3 7 2 16 -1 19 -3 4 -6 -2 -5 -13z" />
    <path
      d="M896 1621 c-3 -5 1 -14 8 -20 12 -10 13 -8 9 8 -6 23 -9 25 -17 12z"
    />
    <path d="M3542 1270 c0 -14 2 -19 5 -12 2 6 2 18 0 25 -3 6 -5 1 -5 -13z" />
    <path d="M3531 1214 c0 -11 3 -14 6 -6 3 7 2 16 -1 19 -3 4 -6 -2 -5 -13z" />
    <path
      d="M3305 1119 c-9 -17 -15 -33 -13 -35 3 -2 12 12 21 31 21 43 13 47 -8 4z"
    />
    <path d="M3642 1110 c0 -14 2 -19 5 -12 2 6 2 18 0 25 -3 6 -5 1 -5 -13z" />
    <path d="M3631 1044 c0 -11 3 -14 6 -6 3 7 2 16 -1 19 -3 4 -6 -2 -5 -13z" />
    <path
      d="M2206 1098 c3 -4 10 -6 15 -2 5 3 16 0 24 -6 11 -9 15 -9 15 -1 0 6 -3 12 -7 12 -34 6 -52 5 -47 -3z"
    />
    <path
      d="M2310 1070 c14 -4 19 -8 11 -9 -8 -1 -12 -3 -9 -6 3 -3 13 -2 22 1 14 5 15 9 4 15 -7 5 -22 8 -33 8 -16 -1 -16 -2 5 -9z"
    />
    <path
      d="M2190 987 c0 -3 12 -12 26 -22 15 -9 23 -12 20 -6 -7 11 -46 35 -46 28z"
    />
    <path d="M2288 983 c7 -3 16 -2 19 1 4 3 -2 6 -13 5 -11 0 -14 -3 -6 -6z" />
    <path
      d="M2696 731 c-3 -5 3 -11 15 -14 16 -4 18 -3 8 9 -13 16 -16 17 -23 5z"
    />
    <path
      d="M2656 712 c-3 -5 1 -9 9 -9 8 0 15 4 15 9 0 4 -4 8 -9 8 -6 0 -12 -4 -15 -8z"
    />
    <path
      d="M2740 706 c0 -2 8 -10 18 -17 15 -13 16 -12 3 4 -13 16 -21 21 -21 13z"
    />
    <path d="M2697 689 c7 -7 15 -10 18 -7 3 3 -2 9 -12 12 -14 6 -15 5 -6 -5z" />
    <path
      d="M2790 670 c11 -9 12 -13 3 -17 -19 -7 -16 -20 7 -26 11 -3 20 -1 20 5 0 6 7 7 16 4 9 -3 12 -2 9 5 -4 5 -15 7 -25 4 -13 -4 -17 -1 -16 11 0 9 -6 19 -14 21 -13 4 -13 3 0 -7z"
    />
    <path
      d="M2919 574 c-10 -12 -10 -15 2 -12 8 2 13 -3 11 -12 -2 -8 0 -12 4 -8 8 9 64 -22 64 -35 0 -4 5 -5 11 -1 8 5 6 10 -5 16 -9 5 -16 15 -16 23 0 8 -4 17 -10 20 -6 4 -7 -1 -3 -11 4 -12 3 -15 -5 -10 -7 4 -12 13 -12 21 0 20 -27 26 -41 9z"
    />
    <path
      d="M1513 763 c0 -9 4 -10 14 -2 7 6 13 12 13 14 0 1 -6 2 -13 2 -8 0 -14 -6 -14 -14z"
    />
    <path
      d="M1320 715 c-25 -24 -53 -44 -62 -45 -10 0 -18 -4 -18 -10 0 -5 -7 -10 -15 -10 -8 0 -15 -5 -15 -11 0 -7 10 -5 26 6 26 16 26 16 19 -7 -5 -18 -2 -16 13 8 11 18 24 33 29 36 10 4 79 78 72 78 -2 0 -24 -20 -49 -45z"
    />
    <path
      d="M1709 693 c-13 -16 -12 -17 4 -4 16 13 21 21 13 21 -2 0 -10 -8 -17 -17z"
    />
    <path
      d="M1830 690 c8 -5 20 -10 25 -10 6 0 3 5 -5 10 -8 5 -19 10 -25 10 -5 0 -3 -5 5 -10z"
    />
    <path
      d="M1767 675 c-18 -13 -17 -14 10 -31 15 -10 30 -21 33 -25 3 -3 16 -12 30 -19 14 -7 44 -29 68 -48 23 -19 45 -32 48 -29 6 6 -148 125 -174 135 -11 4 -11 6 -1 13 8 4 11 10 9 13 -3 2 -13 -2 -23 -9z"
    />
    <path
      d="M1800 670 c0 -6 8 -14 18 -17 9 -4 34 -17 54 -30 21 -13 41 -23 44 -23 15 0 -33 43 -68 61 -43 22 -48 23 -48 9z"
    />
    <path
      d="M1546 532 c-3 -5 1 -9 9 -9 8 0 12 4 9 9 -3 4 -7 8 -9 8 -2 0 -6 -4 -9 -8z"
    />
    <path
      d="M1743 505 c0 -6 6 -12 12 -12 6 0 12 6 12 12 0 6 -6 12 -12 12 -6 0 -12 -6 -12 -12z"
    />
    <path d="M1555 481 c-3 -5 -2 -12 3 -15 5 -3 9 1 9 9 0 17 -3 19 -12 6z" />
    <path
      d="M2000 390 c6 -11 13 -20 16 -20 2 0 0 9 -6 20 -6 11 -13 20 -16 20 -2 0 0 -9 6 -20z"
    />
    <path
      d="M1245 383 c22 -3 46 -10 54 -16 11 -10 13 -9 9 3 -3 10 -20 15 -54 16 -41 1 -43 1 -9 -3z"
    />
    <path
      d="M935 230 c-3 -5 -1 -10 4 -10 6 0 11 5 11 10 0 6 -2 10 -4 10 -3 0 -8 -4 -11 -10z"
    />
    <path
      d="M3960 3345 c0 -5 5 -17 10 -25 5 -8 10 -10 10 -5 0 6 -5 17 -10 25 -5 8 -10 11 -10 5z"
    />
    <path d="M4006 3200 c6 -36 11 -46 18 -39 2 2 -3 20 -10 39 l-14 35 6 -35z" />
    <path
      d="M4027 3105 c3 -27 7 -52 9 -54 7 -8 2 54 -6 79 -6 17 -7 9 -3 -25z"
    />
    <path d="M4043 3005 c0 -22 2 -30 4 -17 2 12 2 30 0 40 -3 9 -5 -1 -4 -23z" />
    <path
      d="M4026 2047 c3 -10 9 -15 12 -12 3 3 0 11 -7 18 -10 9 -11 8 -5 -6z"
    />
    <path
      d="M275 1980 c3 -5 11 -10 16 -10 6 0 7 5 4 10 -3 6 -11 10 -16 10 -6 0 -7 -4 -4 -10z"
    />
    <path
      d="M336 1960 c5 -4 23 -10 39 -12 17 -3 24 -3 18 -1 -7 3 -13 8 -13 11 0 4 -12 8 -26 9 -14 0 -22 -3 -18 -7z"
    />
    <path
      d="M3976 1944 c-4 -14 -5 -28 -3 -31 3 -2 8 8 11 23 4 14 5 28 3 31 -3 2 -8 -8 -11 -23z"
    />
    <path
      d="M422 1938 c-8 -10 -3 -13 19 -14 16 -1 28 -1 27 0 -2 1 -10 7 -19 14 -13 10 -19 10 -27 0z"
    />
    <path
      d="M4110 1911 c5 -11 15 -23 21 -27 6 -3 3 5 -6 20 -20 30 -30 35 -15 7z"
    />
    <path
      d="M495 1910 c11 -5 27 -9 35 -9 9 0 8 4 -5 9 -11 5 -27 9 -35 9 -9 0 -8 -4 5 -9z"
    />
    <path
      d="M561 1888 c6 -7 25 -14 42 -14 26 -1 27 0 11 10 -11 5 -29 12 -42 14 -19 2 -21 0 -11 -10z"
    />
    <path
      d="M3942 1845 c-17 -37 -14 -45 4 -12 9 16 14 31 11 33 -2 2 -9 -7 -15 -21z"
    />
    <path
      d="M590 1474 c0 -6 -9 -20 -20 -32 -12 -12 -16 -22 -11 -22 14 0 46 49 37 57 -3 3 -6 2 -6 -3z"
    />
    <path
      d="M5 1178 c2 -18 4 -39 4 -46 1 -7 5 -11 9 -8 11 7 6 66 -6 78 -6 6 -9 -2 -7 -24z"
    />
    <path
      d="M20 1079 c0 -19 5 -41 10 -49 8 -11 9 -3 6 29 -6 54 -16 67 -16 20z"
    />
    <path d="M31 994 c0 -11 3 -14 6 -6 3 7 2 16 -1 19 -3 4 -6 -2 -5 -13z" />
    <path
      d="M37 963 c-2 -4 -1 -39 4 -78 5 -38 10 -102 11 -142 2 -39 6 -69 10 -67 3 2 4 35 2 72 -3 37 -6 100 -9 140 -3 72 -8 92 -18 75z"
    />
    <path
      d="M973 855 c0 -8 4 -12 9 -9 4 3 8 9 8 15 0 5 -4 9 -8 9 -5 0 -9 -7 -9 -15z"
    />
    <path d="M981 814 c0 -11 3 -14 6 -6 3 7 2 16 -1 19 -3 4 -6 -2 -5 -13z" />
    <path
      d="M991 773 c7 -12 15 -20 18 -17 3 2 -3 12 -13 22 -17 16 -18 16 -5 -5z"
    />
    <path
      d="M3690 749 c0 -5 5 -7 10 -4 6 3 10 8 10 11 0 2 -4 4 -10 4 -5 0 -10 -5 -10 -11z"
    />
    <path
      d="M4113 725 c0 -6 6 -12 12 -12 6 0 12 6 12 12 0 6 -6 12 -12 12 -6 0 -12 -6 -12 -12z"
    />
    <path
      d="M5029 726 c8 -10 9 -16 1 -21 -5 -3 -10 -11 -10 -18 0 -6 6 -2 14 8 14 20 11 45 -6 45 -6 0 -6 -6 1 -14z"
    />
    <path
      d="M1001 661 c-1 -24 2 -32 9 -25 7 7 7 19 1 35 -9 23 -10 22 -10 -10z"
    />
    <path
      d="M44 633 c9 -17 -12 -93 -26 -93 -6 0 -8 -3 -5 -7 4 -3 2 -12 -5 -20 -16 -20 -2 -28 18 -9 9 9 14 20 10 23 -3 4 0 16 7 27 23 35 26 64 9 78 -11 9 -14 10 -8 1z"
    />
    <path
      d="M560 442 c-25 -9 -6 -17 37 -15 27 1 59 2 72 2 13 1 22 4 18 7 -6 6 -110 11 -127 6z"
    />
    <path d="M740 440 c-9 -6 -10 -10 -3 -10 6 0 15 5 18 10 8 12 4 12 -15 0z" />
    <path
      d="M370 430 c-20 -12 -10 -19 14 -10 11 3 15 9 10 13 -6 3 -16 2 -24 -3z"
    />
    <path
      d="M300 426 c0 -2 7 -6 15 -10 8 -3 15 -1 15 4 0 6 -7 10 -15 10 -8 0 -15 -2 -15 -4z"
    />
    <path
      d="M740 410 c-8 -5 -12 -11 -10 -14 3 -2 14 2 24 10 22 15 10 19 -14 4z"
    />
    <path
      d="M70 399 c-26 -7 -23 -9 23 -13 15 -1 27 1 27 5 0 12 -24 16 -50 8z"
    />
    <path
      d="M537 394 c6 -15 23 -19 23 -5 0 5 -7 11 -14 14 -10 4 -13 1 -9 -9z"
    />
    <path
      d="M230 380 c0 -5 5 -10 10 -10 6 0 10 5 10 10 0 6 -4 10 -10 10 -5 0 -10 -4 -10 -10z"
    />
    <path
      d="M264 383 c11 -11 66 -12 66 -2 0 5 -16 9 -37 9 -20 0 -33 -3 -29 -7z"
    />
    <path
      d="M489 373 c-13 -17 -13 -17 5 -3 15 11 20 12 23 3 3 -7 9 -13 15 -13 6 0 6 6 -2 15 -16 19 -24 19 -41 -2z"
    />
  </g>
</svg>
