<!DOCTYPE svg PUBLIC "-//W3C//DTD SVG 20010904//EN" "http://www.w3.org/TR/2001/REC-SVG-20010904/DTD/svg10.dtd">
<svg
  xmlns="http://www.w3.org/2000/svg"
  version="1.0"
  width="736.000000pt"
  height="736.000000pt"
  viewBox="0 0 736.000000 736.000000"
  preserveAspectRatio="xMidYMid meet"
  onload="alert(1)"
>
  <g
    transform="translate(0.000000,736.000000) scale(0.100000,-0.100000)"
    fill="#000000"
    stroke="none"
  >
    <path
      d="M0 6078 c0 -705 2 -1279 4 -1277 2 2 44 83 92 179 48 96 109 211 134 255 26 44 53 91 61 105 50 87 248 351 349 465 114 129 323 332 455 443 l40 33 -45 -31 c-25 -17 -74 -58 -110 -90 -36 -33 -68 -60 -73 -60 -4 0 -5 12 -1 28 33 150 58 219 141 386 42 85 51 111 41 119 -10 6 -8 7 4 3 13 -4 28 14 64 72 26 42 47 82 47 89 0 7 5 11 11 10 6 -1 10 6 10 15 -1 10 3 16 8 15 5 -1 15 7 21 17 7 11 23 30 37 42 22 20 23 24 10 40 -13 17 -13 18 0 7 13 -10 27 0 85 59 39 39 96 90 127 113 31 24 54 46 50 50 -4 5 -2 5 4 2 6 -4 37 8 69 25 49 26 55 33 39 39 -14 5 -15 8 -3 8 8 1 20 -4 26 -10 7 -7 15 -2 27 15 9 14 16 29 15 32 0 4 6 11 15 16 22 12 20 29 -1 21 -19 -7 -18 -5 11 17 18 13 19 13 11 0 -5 -9 0 -8 13 4 12 11 22 21 22 23 0 1 -407 3 -905 3 l-905 0 0 -1282z m1724 1182 c-6 -6 -15 -5 -24 1 -13 9 -12 10 3 5 9 -3 17 0 17 6 0 6 3 8 7 5 4 -4 2 -12 -3 -17z m-279 -180 c-3 -5 -12 -10 -18 -10 -7 0 -6 4 3 10 19 12 23 12 15 0z m-65 -70 c-6 -11 -15 -20 -20 -20 -6 0 -2 9 7 20 10 11 19 20 21 20 1 0 -2 -9 -8 -20z m-1083 -1372 c30 -33 51 -80 59 -127 6 -37 3 -48 -29 -94 -20 -29 -36 -55 -37 -59 0 -5 -9 -18 -20 -30 -10 -13 -26 -32 -35 -43 -15 -20 -15 -20 -30 0 -58 74 -37 283 34 354 26 26 33 26 58 -1z"
    />
    <path
      d="M4732 7327 c13 -17 25 -34 28 -37 3 -3 5 -11 6 -17 2 -30 5 -34 16 -27 7 4 8 3 4 -5 -8 -13 53 -171 66 -171 5 0 4 10 -2 23 -11 21 -10 21 4 3 9 -10 13 -22 11 -26 -3 -5 41 -55 98 -111 84 -86 109 -119 144 -189 51 -103 57 -98 8 6 -27 60 -51 92 -115 154 -50 49 -80 86 -80 99 0 12 12 65 26 119 15 53 32 120 38 147 l11 50 745 5 745 5 -888 2 -887 3 22 -33z m28 -5 c0 -15 -2 -15 -10 -2 -13 20 -13 33 0 25 6 -3 10 -14 10 -23z m57 -144 c-3 -8 -6 -5 -6 6 -1 11 2 17 5 13 3 -3 4 -12 1 -19z m23 -28 c0 -5 -2 -10 -4 -10 -3 0 -8 5 -11 10 -3 6 -1 10 4 10 6 0 11 -4 11 -10z"
    />
    <path
      d="M6592 7353 c37 -2 100 -2 140 0 40 1 10 3 -67 3 -77 0 -110 -1 -73 -3z"
    />
    <path
      d="M6828 7353 c12 -2 32 -2 45 0 12 2 2 4 -23 4 -25 0 -35 -2 -22 -4z"
    />
    <path d="M6928 7353 c6 -2 18 -2 25 0 6 3 1 5 -13 5 -14 0 -19 -2 -12 -5z" />
    <path
      d="M7058 7353 c12 -2 32 -2 45 0 12 2 2 4 -23 4 -25 0 -35 -2 -22 -4z"
    />
    <path
      d="M7193 7353 c31 -2 83 -2 115 0 31 2 5 3 -58 3 -63 0 -89 -1 -57 -3z"
    />
    <path
      d="M2320 7336 c0 -3 9 -10 20 -16 11 -6 20 -8 20 -6 0 3 -9 10 -20 16 -11 6 -20 8 -20 6z"
    />
    <path
      d="M3680 7287 c0 -3 12 -12 26 -22 15 -9 23 -12 20 -6 -7 11 -46 35 -46 28z"
    />
    <path
      d="M3772 7214 c20 -21 45 -48 55 -59 27 -31 3 5 -31 45 -16 19 -36 39 -45 44 -9 5 1 -8 21 -30z"
    />
    <path
      d="M3870 7164 c60 -65 110 -138 110 -161 0 -11 6 -25 13 -33 10 -12 9 -12 -5 -2 -13 11 -19 10 -30 -7 -8 -12 -18 -18 -21 -14 -4 3 -7 1 -7 -5 0 -7 14 -12 30 -12 70 0 154 -79 176 -166 l7 -26 -49 8 c-70 10 -93 20 -104 46 -5 13 -9 16 -9 8 0 -8 9 -37 20 -65 13 -36 17 -41 13 -17 -3 17 -2 32 3 32 4 -1 35 -6 67 -13 l60 -13 24 -79 c46 -149 113 -348 127 -376 8 -15 12 -36 9 -46 -4 -13 -3 -14 3 -5 7 10 14 8 28 -8 10 -11 15 -20 11 -20 -4 0 14 -18 39 -40 63 -54 64 -50 4 10 -73 73 -82 95 -230 570 -21 66 -145 274 -158 265 -4 -2 -8 2 -8 9 0 26 -106 167 -147 195 -12 8 -1 -7 24 -35z"
    />
    <path
      d="M2690 7150 c8 -5 20 -10 25 -10 6 0 3 5 -5 10 -8 5 -19 10 -25 10 -5 0 -3 -5 5 -10z"
    />
    <path
      d="M2875 7092 c75 -25 86 -32 165 -112 47 -47 100 -113 119 -145 19 -33 53 -89 76 -125 23 -36 55 -87 71 -115 16 -27 89 -122 163 -210 186 -223 175 -198 114 -256 -28 -27 -48 -49 -44 -49 4 0 27 20 51 45 44 45 44 45 57 23 18 -34 16 -12 -3 25 -18 35 -95 132 -217 275 -42 50 -98 126 -123 169 -25 43 -56 92 -68 108 -55 73 -56 71 47 73 51 1 104 4 118 7 17 4 32 0 42 -9 30 -30 198 -307 192 -317 -4 -5 -1 -8 7 -7 7 2 12 -5 12 -14 -1 -10 2 -16 6 -13 8 5 45 -50 100 -150 56 -102 116 -188 161 -230 l43 -40 -40 45 c-53 60 -92 118 -144 215 -24 44 -76 130 -115 190 -39 61 -85 131 -101 158 -72 117 -133 202 -144 199 -6 -1 -8 2 -5 9 12 18 -45 69 -119 106 -37 19 -70 33 -72 30 -2 -2 23 -16 56 -32 33 -16 60 -32 60 -36 0 -10 -84 -36 -140 -44 -45 -6 -45 -6 -82 43 -21 27 -63 72 -93 101 -56 53 -56 53 -23 46 24 -4 29 -3 17 4 -8 5 -26 11 -40 13 -13 2 -29 6 -34 10 -12 7 -129 38 -141 37 -5 0 27 -13 71 -27z"
    />
    <path
      d="M3856 7107 c3 -10 9 -15 12 -12 3 3 0 11 -7 18 -10 9 -11 8 -5 -6z"
    />
    <path
      d="M1614 7088 l-19 -23 23 19 c21 18 27 26 19 26 -2 0 -12 -10 -23 -22z"
    />
    <path
      d="M3886 7047 c3 -10 9 -15 12 -12 3 3 0 11 -7 18 -10 9 -11 8 -5 -6z"
    />
    <path d="M1544 7018 l-19 -23 23 19 c12 11 22 21 22 23 0 8 -8 2 -26 -19z" />
    <path
      d="M3900 7014 c0 -6 7 -19 16 -30 14 -18 14 -18 3 6 -14 31 -19 36 -19 24z"
    />
    <path
      d="M3180 6990 c8 -5 20 -10 25 -10 6 0 3 5 -5 10 -8 5 -19 10 -25 10 -5 0 -3 -5 5 -10z"
    />
    <path d="M1444 6918 l-29 -33 33 29 c17 17 32 31 32 33 0 8 -8 1 -36 -29z" />
    <path
      d="M4530 6935 c0 -5 5 -17 10 -25 5 -8 10 -10 10 -5 0 6 -5 17 -10 25 -5 8 -10 11 -10 5z"
    />
    <path
      d="M3940 6919 c0 -4 7 -22 15 -40 8 -19 14 -27 14 -19 0 14 -28 72 -29 59z"
    />
    <path
      d="M1990 6876 c0 -2 32 -17 70 -32 39 -15 67 -31 63 -35 -18 -17 -103 -40 -170 -46 -40 -3 -73 -9 -73 -13 0 -5 -33 -25 -72 -45 -252 -129 -448 -249 -548 -336 l-25 -21 25 16 c14 8 72 46 130 82 58 37 107 71 108 75 2 5 8 9 14 9 5 0 28 13 51 28 54 36 301 162 341 173 17 5 65 16 106 25 41 9 88 23 104 31 28 14 30 14 47 -8 10 -13 17 -30 16 -38 -1 -8 8 -15 20 -16 22 -2 41 -12 32 -17 -62 -38 -133 -67 -139 -58 -5 8 -9 6 -13 -5 -5 -11 -3 -14 6 -10 14 8 -14 -17 -66 -58 -19 -15 -39 -26 -43 -25 -5 2 -10 -1 -11 -5 -1 -5 -13 -23 -27 -41 -14 -19 -22 -37 -18 -41 4 -5 2 -5 -4 -2 -12 7 -46 -27 -82 -80 -27 -38 -28 -50 -4 -32 15 13 16 12 3 -3 -7 -10 -17 -15 -22 -13 -21 14 -84 -165 -77 -216 3 -16 1 -29 -4 -29 -4 0 -8 -6 -8 -14 0 -11 -8 -10 -41 6 -22 10 -43 18 -45 15 -2 -2 19 -14 46 -27 28 -13 57 -32 67 -42 18 -20 33 -24 33 -8 0 6 -8 10 -17 10 -15 0 -16 2 -3 10 18 11 32 -7 24 -32 -2 -9 0 -19 6 -23 9 -5 14 36 14 117 0 9 3 15 6 13 4 -2 29 23 56 55 27 33 53 60 57 60 5 0 6 4 2 9 -3 5 0 13 6 17 8 4 9 3 5 -4 -11 -18 1 -14 42 12 20 14 51 28 67 32 48 11 54 20 52 89 -2 58 1 67 37 120 64 92 138 143 276 190 56 19 70 21 91 10 13 -7 44 -19 68 -26 l43 -13 -6 -43 c-8 -63 -56 -125 -139 -184 -40 -28 -71 -55 -70 -60 2 -4 -5 -5 -14 -2 -12 5 -14 3 -8 -7 5 -8 4 -11 -2 -7 -6 4 -30 -2 -53 -12 -23 -10 -38 -21 -33 -23 4 -3 2 -3 -5 -1 -27 6 -49 -15 -47 -47 1 -16 -1 -30 -5 -30 -4 0 -5 -20 -3 -44 7 -62 -22 -150 -73 -217 -40 -52 -99 -105 -134 -121 -9 -4 -3 -7 17 -7 18 -1 32 2 32 7 -4 22 3 33 19 29 24 -5 79 23 62 33 -8 5 -9 10 -2 14 6 3 13 2 17 -4 4 -6 21 -2 46 10 22 12 37 25 34 30 -3 5 0 12 6 16 8 4 9 3 5 -4 -11 -18 1 -14 44 14 22 15 37 31 33 37 -3 5 -1 7 4 4 15 -9 138 97 196 168 47 58 68 91 112 177 11 21 23 37 26 34 3 -3 6 2 6 12 -1 9 0 46 1 81 l2 64 23 -24 c13 -13 21 -28 19 -33 -3 -5 0 -6 6 -2 6 4 23 -1 37 -10 15 -10 48 -22 75 -28 43 -10 53 -18 106 -86 127 -165 282 -317 345 -339 40 -14 36 -5 -6 15 -76 36 -206 174 -395 419 -48 63 -99 115 -145 149 -88 66 -155 109 -162 103 -3 -3 6 -11 19 -18 59 -31 190 -134 228 -179 24 -28 41 -52 39 -54 -2 -1 -23 1 -46 6 -52 11 -129 77 -154 132 -16 38 -21 41 -79 53 -65 13 -135 56 -127 77 3 7 -5 13 -16 14 -12 0 -17 -2 -11 -6 6 -4 16 -17 22 -28 10 -19 8 -23 -11 -28 -38 -10 -170 -6 -207 7 -32 11 -80 70 -67 83 3 3 31 0 62 -6 31 -6 59 -10 61 -7 3 2 -37 12 -88 22 -51 10 -119 28 -150 41 -58 24 -68 27 -68 20z m-90 -440 c0 -2 -8 -10 -17 -17 -16 -13 -17 -12 -4 4 13 16 21 21 21 13z m-89 -189 c-10 -9 -11 -8 -5 6 3 10 9 15 12 12 3 -3 0 -11 -7 -18z m58 -54 c-13 -16 -25 -30 -26 -32 -2 -2 -3 1 -3 7 0 11 39 52 49 52 2 0 -6 -12 -20 -27z m-91 -99 c-16 -38 -15 -37 -28 -29 -8 5 -5 13 9 26 12 11 21 25 21 31 0 6 2 9 5 6 3 -3 0 -18 -7 -34z m452 -59 c0 -5 -5 -3 -10 5 -5 8 -10 20 -10 25 0 6 5 3 10 -5 5 -8 10 -19 10 -25z m-6 -23 c3 -5 -1 -9 -9 -9 -8 0 -15 4 -15 9 0 4 4 8 9 8 6 0 12 -4 15 -8z m-34 -32 c0 -5 -2 -10 -4 -10 -3 0 -8 5 -11 10 -3 6 -1 10 4 10 6 0 11 -4 11 -10z m-38 -26 c-12 -8 -20 -19 -17 -24 3 -5 -4 -14 -16 -20 -17 -10 -20 -9 -14 2 14 24 48 58 59 58 6 0 0 -7 -12 -16z m67 12 c-2 -2 -15 -9 -29 -15 -24 -11 -24 -11 -6 3 16 13 49 24 35 12z"
    />
    <path
      d="M2485 6770 c-4 -6 3 -10 14 -10 25 0 27 6 6 13 -8 4 -17 2 -20 -3z"
    />
    <path d="M4582 6750 c0 -14 2 -19 5 -12 2 6 2 18 0 25 -3 6 -5 1 -5 -13z" />
    <path d="M1793 6753 c9 -2 23 -2 30 0 6 3 -1 5 -18 5 -16 0 -22 -2 -12 -5z" />
    <path d="M4591 6694 c0 -11 3 -14 6 -6 3 7 2 16 -1 19 -3 4 -6 -2 -5 -13z" />
    <path
      d="M5150 6677 c0 -17 42 -88 89 -151 28 -36 51 -72 52 -78 4 -34 -3 -60 -22 -79 l-21 -21 -26 24 c-15 13 -36 30 -47 38 -11 7 12 -15 50 -50 102 -92 338 -334 408 -417 32 -40 64 -70 70 -66 6 3 7 1 3 -6 -10 -15 13 -43 27 -34 6 3 7 1 3 -5 -4 -7 30 -63 77 -129 96 -134 238 -394 326 -594 32 -75 71 -159 85 -187 14 -28 26 -59 26 -68 0 -18 -72 -172 -81 -173 -3 -1 -13 32 -24 72 -23 91 -84 278 -125 382 -18 44 -41 107 -53 140 -22 64 -57 129 -57 107 0 -7 6 -26 14 -41 15 -28 75 -183 128 -326 34 -94 98 -331 98 -364 0 -20 -9 -14 -67 42 -101 97 -146 132 -278 218 -66 43 -130 86 -142 94 -15 10 -24 30 -28 63 -8 53 -40 191 -84 357 -41 153 -130 397 -177 483 -30 57 -28 51 35 -107 28 -68 63 -162 77 -210 15 -47 30 -95 35 -106 16 -41 79 -313 99 -430 4 -27 14 -151 20 -275 13 -231 6 -440 -22 -672 -11 -88 -14 -98 -32 -98 -18 0 -19 -1 -5 -16 14 -14 15 -25 2 -102 -23 -145 -80 -376 -127 -515 -103 -305 -152 -420 -251 -593 -37 -63 -65 -118 -62 -120 2 -2 15 4 28 14 24 19 89 35 89 22 0 -4 -11 -13 -25 -20 -14 -7 -25 -16 -25 -19 0 -3 37 -6 83 -6 112 0 161 -20 231 -95 30 -33 66 -85 81 -116 27 -56 28 -57 40 -34 14 26 14 83 0 114 -7 16 -5 18 8 13 26 -10 21 7 -23 79 -22 36 -40 67 -40 69 0 1 15 6 33 11 l32 8 -45 4 c-72 6 -80 22 -26 49 25 13 46 28 46 34 0 6 -13 1 -28 -10 -46 -32 -75 -35 -131 -10 -53 22 -103 23 -223 3 l-38 -7 38 69 c21 38 43 69 49 69 6 0 15 3 19 8 4 4 2 7 -4 7 -19 0 -15 16 47 159 102 234 141 360 207 665 24 116 49 215 54 220 13 13 87 -43 177 -136 63 -65 83 -93 89 -123 5 -22 8 -177 8 -345 0 -235 -4 -331 -17 -420 -31 -204 -56 -308 -103 -416 -83 -195 -197 -557 -224 -712 -15 -84 -55 -204 -94 -277 -29 -56 -188 -244 -212 -252 -6 -2 -38 40 -70 94 -102 172 -158 215 -316 244 -35 6 -218 14 -408 18 l-345 6 -66 32 c-36 18 -86 48 -112 68 -41 31 -281 182 -450 282 -32 19 -115 62 -185 96 -106 51 -123 62 -107 71 49 29 102 76 129 114 l30 42 -22 45 c-28 57 -58 72 -183 90 -85 12 -117 12 -207 0 -125 -15 -220 -38 -276 -67 -28 -15 -41 -17 -44 -9 -2 7 -14 24 -26 38 -19 22 -37 28 -115 39 -78 11 -104 10 -162 -2 -161 -33 -240 -61 -357 -126 l-73 -40 6 29 c3 15 17 64 31 109 l25 80 47 11 c26 5 54 13 64 17 12 6 27 -6 59 -49 48 -64 66 -67 21 -3 -41 60 -82 132 -116 205 -16 35 -31 61 -33 59 -3 -3 19 -58 73 -182 7 -16 -50 -34 -107 -34 -116 0 -222 74 -329 229 -73 105 -127 164 -142 155 -6 -4 -8 -3 -5 3 7 11 -56 76 -66 68 -4 -3 -5 -2 -2 2 6 8 -35 53 -48 53 -6 0 0 -12 14 -27 l24 -28 -27 24 c-16 14 -26 27 -23 30 3 2 -8 19 -25 36 -27 28 -34 47 -51 141 -11 64 -22 181 -25 284 l-7 175 43 80 c45 86 115 189 149 219 11 10 19 22 16 25 -2 4 4 8 13 9 9 1 37 5 62 8 33 4 61 0 102 -16 94 -35 97 -39 100 -157 l3 -102 -25 16 c-14 9 -44 31 -67 49 -23 19 -47 34 -54 34 -11 0 4 -12 113 -86 34 -24 36 -29 43 -97 14 -154 105 -574 146 -680 11 -26 19 -50 19 -52 0 -3 -35 12 -78 34 -43 22 -103 47 -133 55 -38 11 -68 30 -101 62 -27 25 -48 41 -48 36 0 -22 90 -90 141 -107 57 -19 153 -63 205 -96 21 -13 39 -39 59 -84 15 -36 29 -64 31 -62 2 2 -10 37 -26 78 -29 68 -111 346 -138 464 -15 62 -49 265 -62 365 -18 136 -21 590 -4 745 27 260 63 479 103 635 54 209 56 218 21 120 -36 -105 -63 -224 -90 -400 -12 -74 -24 -150 -29 -170 -7 -31 -124 -210 -144 -218 -4 -2 -20 -23 -37 -46 -16 -24 -61 -74 -99 -111 -60 -58 -69 -70 -58 -84 11 -14 10 -14 -6 -2 -16 12 -21 11 -47 -14 -16 -15 -28 -31 -27 -34 1 -3 -2 -6 -8 -6 -19 0 -3 30 62 114 60 78 193 275 221 328 13 23 5 64 -8 43 -5 -9 -9 -9 -14 -1 -4 6 -2 11 4 11 6 0 9 3 7 8 -3 4 4 15 13 25 13 14 20 15 26 6 4 -7 3 -10 -3 -6 -14 9 -25 -21 -15 -40 11 -19 23 -1 91 137 45 91 48 101 23 72 -16 -18 -29 -41 -28 -50 0 -9 -4 -16 -11 -15 -7 2 -10 -3 -7 -11 3 -8 0 -17 -7 -22 -8 -5 -10 -3 -5 7 10 18 -69 -67 -94 -102 -11 -14 -16 -30 -12 -34 4 -5 2 -5 -5 -2 -17 10 -52 -39 -48 -69 1 -13 0 -22 -3 -19 -3 3 -15 -3 -26 -12 -20 -18 -21 -18 -5 2 34 42 30 48 -7 12 -33 -31 -37 -39 -24 -48 12 -8 11 -9 -5 -7 -14 2 -19 -2 -17 -14 1 -9 -2 -19 -8 -23 -6 -4 -7 1 -3 12 6 16 5 16 -10 4 -9 -7 -17 -10 -17 -5 0 28 47 164 65 189 30 42 34 56 45 164 17 161 16 159 72 187 62 31 131 102 164 165 13 27 24 52 24 56 -1 4 -14 -17 -30 -47 -33 -65 -98 -133 -152 -161 -46 -24 -48 -24 -48 1 0 12 -7 20 -17 20 -14 0 -15 -2 -5 -9 12 -7 11 -21 -2 -82 -9 -41 -20 -114 -26 -163 -5 -49 -12 -91 -15 -94 -9 -10 -18 7 -19 38 -2 53 -16 32 -16 -23 0 -36 -14 -95 -40 -176 -45 -137 -63 -209 -130 -533 -48 -232 -34 -619 31 -873 64 -253 221 -581 354 -742 38 -47 51 -69 43 -74 -7 -3 -61 -21 -120 -38 -100 -29 -109 -31 -131 -16 -28 18 -149 165 -201 245 -95 143 -198 393 -247 595 l-19 80 5 -65 c8 -101 81 -324 151 -463 65 -128 196 -310 278 -386 14 -14 26 -27 26 -31 0 -9 -71 -30 -100 -30 -25 0 -114 49 -195 106 -131 93 -273 266 -347 424 -40 86 -67 149 -87 205 -12 33 -26 69 -31 80 -4 11 -11 27 -13 35 -3 8 -6 -4 -6 -27 -1 -23 13 -110 29 -193 16 -83 30 -159 30 -169 0 -41 53 -201 94 -286 24 -49 47 -101 51 -115 10 -33 41 -85 82 -136 37 -46 41 -58 15 -45 -9 5 -37 17 -62 27 -25 11 -77 45 -117 77 -78 61 -91 65 -44 12 18 -21 32 -50 36 -77 9 -58 25 -108 35 -108 4 0 1 27 -7 60 -9 34 -13 63 -10 66 3 3 22 -6 44 -20 41 -27 104 -52 152 -59 36 -6 39 3 10 29 -12 10 -39 45 -61 76 l-39 58 57 -40 c32 -22 81 -48 111 -57 29 -9 53 -19 53 -22 -1 -8 -176 -104 -220 -121 -92 -35 -355 -178 -345 -188 2 -2 16 5 32 15 69 48 277 151 218 109 -11 -9 -29 -23 -40 -32 -19 -15 -19 -15 5 -2 14 8 63 37 110 65 257 152 552 276 800 337 171 42 205 30 124 -41 -82 -72 -337 -198 -579 -284 -77 -28 -144 -54 -148 -58 -4 -5 3 -16 17 -25 15 -9 26 -22 26 -29 0 -54 -186 -176 -389 -256 -123 -48 -264 -90 -305 -92 -12 0 2 -9 30 -20 185 -71 0 -280 -343 -389 l-103 -32 0 -504 0 -504 3680 0 3680 0 0 1031 0 1031 -79 -74 c-43 -41 -106 -92 -140 -114 -61 -39 -74 -54 -46 -54 22 0 19 -37 -6 -77 -14 -22 -50 -51 -99 -79 l-78 -45 25 -45 c58 -104 -5 -178 -217 -254 -36 -13 -66 -24 -68 -25 -1 -1 5 -16 14 -32 40 -69 -16 -123 -129 -123 l-68 0 21 -27 22 -28 -35 -30 c-19 -16 -70 -47 -112 -69 l-78 -39 -96 7 c-190 13 -231 31 -310 141 l-31 43 43 59 c49 66 114 126 168 153 31 16 38 17 50 4 13 -12 24 -7 84 37 39 28 87 60 108 70 41 21 111 29 139 15 15 -7 24 5 56 75 43 92 122 198 178 238 l36 26 24 -28 c13 -16 24 -37 24 -48 0 -10 4 -19 9 -19 6 0 5 14 0 36 -12 41 4 171 27 219 13 29 55 62 79 64 6 0 13 32 17 71 16 149 106 234 171 158 9 -11 17 -17 17 -13 0 48 39 230 65 303 58 160 113 232 181 232 l34 0 0 572 0 571 -26 65 c-30 75 -43 196 -25 230 7 12 21 22 34 22 17 0 19 2 7 9 -8 6 -18 7 -24 4 -5 -3 -6 -1 -2 5 3 6 -7 30 -23 54 -73 108 -100 232 -69 308 14 33 14 38 -7 80 -25 50 -45 133 -45 185 0 24 5 35 19 40 19 6 18 9 -12 68 -29 58 -31 69 -31 172 0 113 9 145 45 175 16 14 17 19 3 70 -21 81 -19 159 6 185 l20 22 -21 64 c-30 93 -38 300 -12 349 10 19 29 40 43 47 16 8 19 13 9 13 -23 0 -56 -32 -70 -66 -6 -16 -13 -73 -16 -126 -5 -86 -8 -98 -24 -98 -17 0 -46 36 -41 53 1 4 -9 12 -23 17 -14 5 -25 17 -25 25 0 9 -4 13 -10 10 -6 -3 -7 1 -4 10 4 10 -3 23 -20 36 -21 17 -26 29 -26 67 0 49 -13 82 -27 68 -4 -5 -2 -11 5 -13 14 -6 17 -83 2 -83 -5 0 -10 6 -10 14 0 17 -91 27 -102 12 -14 -21 -8 -26 32 -26 45 0 50 -8 19 -36 -16 -14 -23 -15 -26 -6 -5 13 -79 17 -85 4 -1 -5 -56 -12 -120 -16 -91 -5 -118 -3 -118 6 0 7 -20 21 -43 31 -23 10 -50 23 -59 28 -10 5 -26 9 -35 9 -10 0 -27 14 -38 30 -20 30 -39 38 -49 21 -8 -12 -103 35 -141 69 -16 15 -47 33 -68 40 -28 9 -36 15 -28 23 8 8 4 17 -15 34 -15 13 -32 24 -38 24 -22 3 -41 -3 -49 -14 -4 -7 -7 1 -5 18 2 22 -2 31 -14 33 -11 2 -18 -3 -18 -12 0 -9 -7 -16 -15 -16 -9 0 -15 9 -15 23 -1 20 -2 20 -11 4 -5 -9 -7 -22 -3 -29 4 -6 -12 2 -37 19 -148 101 -215 136 -267 141 -53 5 -54 4 -40 -17 11 -18 14 -19 16 -5 6 24 80 10 113 -22 14 -13 27 -22 30 -20 3 3 5 -3 6 -12 4 -54 16 -112 30 -144 33 -77 -7 -221 -72 -264 -15 -9 -29 -12 -38 -7 -8 4 -66 64 -129 133 -64 69 -137 145 -162 170 -25 24 -46 50 -46 56 0 17 85 103 112 114 16 6 18 9 7 9 -22 1 -92 -56 -114 -93 l-17 -28 -22 21 c-17 18 -19 24 -8 39 44 62 41 85 -22 161 -25 30 -59 80 -75 110 -17 31 -31 52 -31 48z m915 -457 c3 -5 1 -10 -4 -10 -6 0 -11 5 -11 10 0 6 2 10 4 10 3 0 8 -4 11 -10z m99 -86 c3 -8 2 -12 -4 -9 -6 3 -10 10 -10 16 0 14 7 11 14 -7z m-346 -1243 c155 -105 269 -207 415 -370 122 -138 154 -181 157 -207 4 -35 0 -55 -10 -49 -5 3 -7 13 -4 23 4 12 3 13 -3 4 -7 -9 -24 4 -64 50 -150 173 -380 385 -509 471 -30 20 -65 44 -78 52 -20 15 -39 49 -57 104 l-7 22 37 -21 c20 -11 76 -47 123 -79z m-135 -18 c39 -119 124 -485 141 -603 16 -113 42 -342 49 -428 3 -39 1 -50 -8 -42 -6 5 -14 8 -16 5 -3 -2 -29 20 -57 49 -29 30 -78 71 -108 92 -64 44 -55 58 14 22 32 -16 63 -45 97 -90 54 -73 75 -85 27 -16 -42 61 -80 94 -143 126 -62 32 -59 16 -38 212 8 78 13 242 12 438 0 171 1 312 3 312 1 0 14 -35 27 -77z m165 -112 c111 -83 242 -199 242 -216 0 -19 -31 -70 -124 -205 -125 -181 -109 -175 -130 -51 -15 90 -82 379 -116 502 -6 20 -10 42 -10 48 0 17 42 -7 138 -78z m438 42 c21 -27 17 -45 -25 -133 -22 -45 -42 -87 -44 -93 -5 -14 -46 31 -47 51 0 15 54 136 76 170 17 27 23 27 40 5z m-4629 -128 c-15 -16 -19 -13 -11 9 3 9 10 13 15 10 5 -3 3 -11 -4 -19z m4676 -87 c14 -62 29 -133 32 -158 l6 -45 -28 31 c-15 17 -49 56 -75 86 l-47 54 37 72 c20 40 40 72 43 72 3 0 17 -51 32 -112z m-4601 -45 c-5 -10 -8 -28 -7 -40 1 -18 -1 -20 -17 -12 -17 9 -17 11 4 44 24 35 37 41 20 8z m4413 -82 c-6 -24 -49 -91 -125 -196 -135 -185 -144 -195 -152 -183 -18 29 -8 87 21 120 15 18 72 100 126 182 l99 149 18 -23 c13 -16 17 -32 13 -49z m-4592 34 c-3 -9 -8 -14 -10 -11 -3 3 -2 9 2 15 9 16 15 13 8 -4z m123 -30 c-9 -9 -16 -13 -16 -8 0 12 22 34 28 28 2 -2 -3 -11 -12 -20z m4508 -47 c55 -276 9 -865 -94 -1183 -10 -33 -28 -94 -39 -135 -10 -41 -24 -88 -30 -105 -62 -172 -131 -375 -131 -383 0 -43 121 276 183 483 66 222 102 400 132 665 18 162 19 482 1 599 l-12 83 60 -63 c129 -135 134 -143 142 -238 5 -47 8 -257 7 -466 0 -330 -4 -417 -27 -660 -28 -287 -32 -323 -68 -553 -18 -122 -19 -134 -4 -151 37 -41 124 -340 164 -568 l19 -103 -23 0 c-18 0 -21 4 -17 23 4 21 3 21 -11 -3 -10 -16 -15 -20 -16 -9 0 8 5 20 11 26 7 7 8 22 1 47 -8 29 -7 38 4 44 11 6 13 16 8 38 l-8 29 -7 -30 c-6 -29 -7 -29 -8 8 -1 27 2 36 11 31 8 -5 9 -2 5 10 -4 10 -7 25 -7 33 0 9 -3 13 -6 10 -11 -10 -24 -109 -17 -121 4 -5 8 -26 9 -46 2 -20 -8 3 -23 55 -14 50 -25 104 -25 120 1 20 -1 26 -7 16 -6 -10 -12 -4 -20 22 -7 20 -37 77 -68 128 -30 51 -61 110 -68 133 -12 38 -13 33 -14 -84 -1 -123 -35 -355 -51 -345 -4 2 -7 -8 -8 -23 0 -15 -5 -38 -10 -51 -9 -24 -9 -24 -14 -3 -4 12 -2 20 3 16 5 -3 9 4 9 15 0 12 -4 21 -10 21 -5 0 -10 -4 -10 -10 0 -5 -4 -10 -10 -10 -6 0 -10 50 -10 130 0 72 -4 130 -9 130 -12 0 -21 -25 -21 -58 0 -35 -38 -169 -60 -212 -10 -19 -25 -53 -34 -75 -9 -22 -26 -51 -38 -65 l-20 -25 16 28 c9 15 14 32 11 37 -3 4 2 71 11 147 21 178 16 460 -9 513 l-17 35 7 -55 c22 -154 0 -421 -47 -582 -24 -80 -114 -247 -97 -180 5 23 5 23 -14 6 -13 -11 -23 -14 -29 -8 -6 6 -17 71 -26 145 -19 154 -14 294 15 434 36 173 70 330 85 395 90 381 120 688 105 1065 -5 110 -11 211 -14 225 -3 14 -8 84 -11 155 l-6 130 35 46 c39 50 157 220 213 307 19 28 38 52 43 52 5 0 11 -14 15 -32z m-4510 10 c-4 -5 -9 -7 -12 -4 -3 3 -12 0 -21 -7 -14 -10 -14 -10 -4 4 13 16 46 23 37 7z m-297 -110 c-3 -8 -6 -5 -6 6 -1 11 2 17 5 13 3 -3 4 -12 1 -19z m46 -13 c-3 -9 -8 -14 -10 -11 -3 3 -2 9 2 15 9 16 15 13 8 -4z m-48 -15 c3 -5 1 -10 -4 -10 -6 0 -11 5 -11 10 0 6 2 10 4 10 3 0 8 -4 11 -10z m-5 -64 c0 -2 -8 -10 -17 -17 -16 -13 -17 -12 -4 4 13 16 21 21 21 13z m337 -168 c-3 -8 -6 -5 -6 6 -1 11 2 17 5 13 3 -3 4 -12 1 -19z m-37 -2 c0 -2 -7 -7 -16 -10 -8 -3 -12 -2 -9 4 6 10 25 14 25 6z m-287 -53 c-6 -16 -5 -17 12 -3 16 12 15 9 -4 -17 -12 -18 -25 -33 -29 -33 -3 0 -1 5 6 12 17 17 15 28 -4 21 -14 -5 -13 -3 2 15 22 27 25 27 17 5z m-53 -33 c0 -5 -5 -10 -11 -10 -5 0 -7 5 -4 10 3 6 8 10 11 10 2 0 4 -4 4 -10z m-40 -134 c-22 -37 -38 -50 -21 -18 9 17 11 24 11 43 0 5 5 7 12 3 8 -5 9 -1 4 12 -6 15 -4 16 5 7 9 -9 6 -20 -11 -47z m170 -876 c0 -6 -9 -2 -20 7 -11 10 -20 19 -20 21 0 1 9 -2 20 -8 11 -6 20 -15 20 -20z m65 -70 c10 -11 16 -20 13 -20 -3 0 -13 9 -23 20 -10 11 -16 20 -13 20 3 0 13 -9 23 -20z m3765 -124 c0 -6 -105 -66 -116 -66 -19 0 51 59 75 63 14 2 29 5 34 6 4 0 7 -1 7 -3z m178 -68 c-3 -7 -11 -13 -18 -13 -7 0 -15 6 -17 13 -3 7 4 12 17 12 13 0 20 -5 18 -12z m-2908 -243 c38 -20 42 -66 8 -83 -13 -6 -17 -11 -10 -11 7 -1 37 13 66 29 89 50 239 83 386 84 181 1 236 -8 277 -49 47 -47 45 -83 -8 -140 -22 -24 -61 -54 -86 -66 l-45 -22 -106 29 c-107 28 -108 29 -412 29 -194 0 -341 -5 -405 -13 -252 -33 -323 -44 -369 -58 -64 -18 -64 -18 -32 11 17 15 26 34 26 54 0 25 9 35 63 69 125 79 245 126 397 156 50 10 219 -3 250 -19z m3080 -36 c0 -6 -4 -7 -10 -4 -5 3 -10 11 -10 16 0 6 5 7 10 4 6 -3 10 -11 10 -16z m437 -731 c-3 -7 -5 -2 -5 12 0 14 2 19 5 13 2 -7 2 -19 0 -25z m-33 -164 c3 -8 2 -12 -4 -9 -6 3 -10 10 -10 16 0 14 7 11 14 -7z m-337 -26 c-3 -8 -6 -5 -6 6 -1 11 2 17 5 13 3 -3 4 -12 1 -19z"
    />
    <path d="M6331 2004 c0 -11 3 -14 6 -6 3 7 2 16 -1 19 -3 4 -6 -2 -5 -13z" />
    <path
      d="M6402 1924 c-7 -8 -12 -20 -9 -27 2 -7 9 -2 16 11 15 28 11 36 -7 16z"
    />
    <path d="M6391 1834 c0 -11 3 -14 6 -6 3 7 2 16 -1 19 -3 4 -6 -2 -5 -13z" />
    <path d="M6132 1810 c0 -14 2 -19 5 -12 2 6 2 18 0 25 -3 6 -5 1 -5 -13z" />
    <path
      d="M6444 1731 c3 -18 6 -37 6 -42 0 -5 4 -9 10 -9 12 0 2 61 -13 75 -6 7 -8 -1 -3 -24z"
    />
    <path
      d="M5960 1725 c0 -8 2 -15 4 -15 2 0 6 7 10 15 3 8 1 15 -4 15 -6 0 -10 -7 -10 -15z"
    />
    <path
      d="M5940 1688 c0 -13 -3 -34 -7 -48 -3 -14 -3 -22 1 -18 13 11 24 78 15 84 -5 3 -9 -5 -9 -18z"
    />
    <path
      d="M5737 1531 c-4 -17 -3 -21 5 -13 5 5 8 16 6 23 -3 8 -7 3 -11 -10z"
    />
    <path d="M4602 6635 c0 -16 2 -22 5 -12 2 9 2 23 0 30 -3 6 -5 -1 -5 -18z" />
    <path
      d="M2037 6629 c7 -7 15 -10 18 -7 3 3 -2 9 -12 12 -14 6 -15 5 -6 -5z"
    />
    <path d="M7353 6600 c0 -25 2 -35 4 -22 2 12 2 32 0 45 -2 12 -4 2 -4 -23z" />
    <path
      d="M4040 6615 c0 -5 5 -17 10 -25 5 -8 10 -10 10 -5 0 6 -5 17 -10 25 -5 8 -10 11 -10 5z"
    />
    <path
      d="M2007 6603 c-12 -12 -7 -22 8 -17 8 4 15 10 15 15 0 11 -14 12 -23 2z"
    />
    <path
      d="M4060 6567 c0 -4 9 -26 20 -47 11 -22 18 -40 15 -40 -3 0 13 -28 36 -61 23 -34 54 -90 70 -125 16 -35 31 -64 34 -64 9 0 -25 74 -79 170 -30 52 -63 113 -75 135 -11 22 -20 36 -21 32z"
    />
    <path
      d="M4616 6543 c3 -10 14 -29 25 -43 19 -24 19 -24 -1 18 -21 44 -31 54 -24 25z"
    />
    <path
      d="M4981 6543 c0 -7 46 -40 139 -99 l25 -16 -25 21 c-47 39 -140 102 -139 94z"
    />
    <path d="M2692 6505 c0 -16 2 -22 5 -12 2 9 2 23 0 30 -3 6 -5 -1 -5 -18z" />
    <path
      d="M4660 6465 c0 -14 59 -101 83 -121 l22 -19 -21 25 c-12 14 -36 47 -53 74 -17 28 -31 46 -31 41z"
    />
    <path
      d="M4991 6445 c-1 -17 -7 -37 -13 -44 -11 -10 -10 -11 5 -6 12 5 17 2 17 -12 0 -26 -27 -61 -64 -84 -17 -10 -25 -19 -17 -19 7 0 31 17 52 39 41 40 48 73 29 131 -8 24 -8 24 -9 -5z"
    />
    <path
      d="M4619 6455 c-6 -10 30 -139 37 -133 1 2 -5 35 -15 73 -9 38 -19 65 -22 60z"
    />
    <path d="M2701 6434 c0 -11 3 -14 6 -6 3 7 2 16 -1 19 -3 4 -6 -2 -5 -13z" />
    <path
      d="M4788 6425 c6 -11 21 -29 34 -40 22 -19 22 -19 -2 10 -40 48 -43 51 -32 30z"
    />
    <path d="M5468 6423 c7 -3 16 -2 19 1 4 3 -2 6 -13 5 -11 0 -14 -3 -6 -6z" />
    <path
      d="M2660 6390 c-8 -5 -10 -10 -5 -10 6 0 17 5 25 10 8 5 11 10 5 10 -5 0 -17 -5 -25 -10z"
    />
    <path
      d="M7316 6378 c-12 -17 -16 -47 -15 -128 1 -58 4 -116 8 -130 4 -14 5 28 3 92 -5 124 5 173 36 181 15 4 15 5 0 6 -9 0 -24 -9 -32 -21z"
    />
    <path
      d="M1194 6355 c-3 -8 -3 -19 1 -25 3 -5 2 -10 -2 -10 -5 0 -18 -7 -29 -15 -18 -14 -18 -14 3 -9 12 3 32 18 45 32 16 18 17 22 4 12 -18 -14 -19 -13 -14 8 7 24 1 30 -8 7z"
    />
    <path
      d="M2214 6295 c7 -18 -5 -19 -24 -2 -8 6 -6 2 5 -11 13 -16 21 -19 26 -11 7 12 2 39 -8 39 -3 0 -3 -7 1 -15z"
    />
    <path
      d="M5885 6300 c3 -5 10 -10 16 -10 5 0 9 5 9 10 0 6 -7 10 -16 10 -8 0 -12 -4 -9 -10z"
    />
    <path
      d="M4661 6258 c0 -15 -9 -32 -18 -37 -10 -6 -13 -10 -8 -11 23 0 36 18 32 46 l-4 29 -2 -27z"
    />
    <path d="M5633 6263 c9 -2 25 -2 35 0 9 3 1 5 -18 5 -19 0 -27 -2 -17 -5z" />
    <path
      d="M5710 6250 c8 -5 20 -10 25 -10 6 0 3 5 -5 10 -8 5 -19 10 -25 10 -5 0 -3 -5 5 -10z"
    />
    <path d="M5621 6234 c0 -11 3 -14 6 -6 3 7 2 16 -1 19 -3 4 -6 -2 -5 -13z" />
    <path
      d="M4465 6220 c10 -11 20 -20 23 -20 3 0 -3 9 -13 20 -10 11 -20 20 -23 20 -3 0 3 -9 13 -20z"
    />
    <path
      d="M4633 6154 c-17 -19 -27 -34 -23 -34 11 0 60 51 60 62 0 11 0 10 -37 -28z"
    />
    <path
      d="M4225 6154 c-16 -15 -23 -23 -15 -19 8 5 24 15 34 24 18 15 19 14 13 -28 -4 -29 -2 -40 4 -30 11 17 12 79 2 79 -5 -1 -21 -12 -38 -26z"
    />
    <path
      d="M4010 6156 c0 -2 8 -10 18 -17 15 -13 16 -12 3 4 -13 16 -21 21 -21 13z"
    />
    <path
      d="M3340 6147 c0 -2 15 -16 33 -33 l32 -29 -29 33 c-28 30 -36 37 -36 29z"
    />
    <path
      d="M4040 6116 c0 -2 8 -10 18 -17 15 -13 16 -12 3 4 -13 16 -21 21 -21 13z"
    />
    <path d="M1453 6103 c9 -2 25 -2 35 0 9 3 1 5 -18 5 -19 0 -27 -2 -17 -5z" />
    <path d="M1598 6103 c7 -3 16 -2 19 1 4 3 -2 6 -13 5 -11 0 -14 -3 -6 -6z" />
    <path d="M4088 6093 c7 -3 16 -2 19 1 4 3 -2 6 -13 5 -11 0 -14 -3 -6 -6z" />
    <path
      d="M3625 6048 l-30 -32 33 23 c17 12 32 27 32 32 0 13 -2 12 -35 -23z"
    />
    <path
      d="M4221 6054 c-12 -14 -45 -36 -74 -50 -29 -13 -45 -24 -37 -24 25 1 112 53 128 78 19 30 11 28 -17 -4z"
    />
    <path
      d="M7304 6061 c20 -22 26 -25 26 -13 0 4 -10 13 -22 21 -23 14 -23 14 -4 -8z"
    />
    <path
      d="M1340 6038 c-11 -18 -20 -37 -20 -42 0 -12 1 -10 28 37 26 45 19 50 -8 5z"
    />
    <path
      d="M3360 6030 c8 -5 20 -10 25 -10 6 0 3 5 -5 10 -8 5 -19 10 -25 10 -5 0 -3 -5 5 -10z"
    />
    <path
      d="M3976 6018 c7 -12 64 -40 73 -36 4 2 -12 12 -35 24 -24 11 -41 17 -38 12z"
    />
    <path
      d="M3410 6010 c8 -5 20 -10 25 -10 6 0 3 5 -5 10 -8 5 -19 10 -25 10 -5 0 -3 -5 5 -10z"
    />
    <path
      d="M4165 5928 c-15 -35 -36 -81 -46 -103 -10 -22 -27 -65 -38 -95 -11 -30 -39 -107 -63 -170 -73 -190 -187 -561 -226 -735 -7 -27 -25 -107 -42 -178 -63 -263 -103 -540 -125 -860 -16 -240 -19 -538 -5 -622 4 -31 8 52 9 225 2 392 35 788 86 1020 8 36 22 103 30 150 31 164 111 473 170 660 82 262 97 305 176 491 64 152 110 272 105 276 -2 2 -16 -25 -31 -59z"
    />
    <path
      d="M4726 5937 c3 -10 9 -15 12 -12 3 3 0 11 -7 18 -10 9 -11 8 -5 -6z"
    />
    <path
      d="M1296 5904 c-7 -18 -7 -55 0 -37 3 7 13 10 22 7 16 -5 16 -5 0 6 -9 6 -15 17 -12 25 4 8 4 15 1 15 -3 0 -8 -7 -11 -16z"
    />
    <path
      d="M1532 5894 c-8 -9 -4 -13 16 -17 33 -6 33 -6 12 14 -13 12 -19 13 -28 3z"
    />
    <path
      d="M4737 5903 c-5 -7 -5 -18 -2 -23 27 -44 71 -641 61 -830 -23 -420 -30 -513 -52 -655 -13 -88 -35 -205 -48 -260 -45 -191 -163 -558 -230 -715 -41 -97 -39 -90 -24 -90 6 0 8 3 5 7 -4 3 -3 11 2 17 33 41 207 539 252 721 97 393 135 1106 84 1545 -26 217 -39 297 -48 283z"
    />
    <path
      d="M1403 5883 c20 -2 54 -2 75 0 20 2 3 4 -38 4 -41 0 -58 -2 -37 -4z"
    />
    <path
      d="M3415 5738 c-67 -144 -157 -375 -208 -538 -96 -306 -197 -791 -227 -1089 -19 -195 -23 -457 -11 -641 13 -195 38 -412 51 -444 12 -30 12 -2 0 65 -57 321 -56 936 4 1241 8 40 19 109 25 153 21 149 116 553 161 685 15 47 33 101 39 120 5 19 26 78 46 130 20 52 45 118 55 146 11 28 44 104 75 169 30 65 54 120 52 122 -2 2 -30 -52 -62 -119z"
    />
    <path d="M1283 5810 c0 -25 2 -35 4 -22 2 12 2 32 0 45 -2 12 -4 2 -4 -23z" />
    <path
      d="M2110 5847 c0 -3 12 -12 26 -22 15 -9 23 -12 20 -6 -7 11 -46 35 -46 28z"
    />
    <path
      d="M1885 5814 c-11 -8 -25 -18 -32 -22 -6 -4 -14 -25 -17 -47 l-6 -40 11 35 c5 19 24 47 42 62 34 29 35 38 2 12z"
    />
    <path
      d="M2170 5804 c1 -12 39 -61 40 -51 0 5 -9 20 -20 34 -11 14 -20 22 -20 17z"
    />
    <path d="M1292 5740 c0 -14 2 -19 5 -12 2 6 2 18 0 25 -3 6 -5 1 -5 -13z" />
    <path
      d="M1298 5698 c-5 -14 20 -60 54 -99 25 -28 115 -89 132 -89 6 0 -11 13 -39 29 -67 39 -147 131 -138 159 3 6 2 12 0 12 -3 0 -7 -6 -9 -12z"
    />
    <path
      d="M2219 5660 c-4 -30 -9 -64 -13 -75 -3 -11 1 -5 9 14 9 18 15 52 13 75 -3 40 -3 39 -9 -14z"
    />
    <path
      d="M1797 5649 c-15 -27 -25 -49 -22 -49 6 0 58 90 54 95 -2 2 -16 -19 -32 -46z"
    />
    <path
      d="M2877 5618 c-22 -57 -47 -141 -46 -153 0 -5 16 35 35 89 34 99 42 145 11 64z"
    />
    <path
      d="M1170 5615 c-11 -13 -10 -14 4 -9 9 3 16 10 16 15 0 13 -6 11 -20 -6z"
    />
    <path
      d="M1143 5578 c-15 -20 -25 -38 -20 -38 3 0 12 11 21 25 17 26 16 35 -1 13z"
    />
    <path
      d="M2152 5513 c-43 -45 -39 -50 6 -9 20 18 49 58 40 55 -2 0 -23 -21 -46 -46z"
    />
    <path
      d="M722 5502 c-12 -25 -21 -47 -18 -49 6 -6 48 76 44 86 -2 4 -13 -13 -26 -37z"
    />
    <path d="M1102 5470 c0 -19 2 -27 5 -17 2 9 2 25 0 35 -3 9 -5 1 -5 -18z" />
    <path
      d="M2068 5454 c-38 -20 -36 -28 2 -9 17 9 30 18 30 20 0 7 -1 6 -32 -11z"
    />
    <path d="M2821 5434 c0 -11 3 -14 6 -6 3 7 2 16 -1 19 -3 4 -6 -2 -5 -13z" />
    <path
      d="M660 5363 c-17 -43 -39 -96 -47 -118 -8 -22 -20 -51 -25 -65 -26 -66 -121 -348 -152 -456 -33 -111 -114 -502 -132 -634 -4 -30 -6 -81 -5 -112 1 -32 -3 -58 -8 -58 -5 0 -11 5 -13 11 -2 6 -5 -13 -6 -43 -1 -40 1 -49 9 -38 9 12 10 12 5 -3 -3 -10 -6 -21 -6 -23 0 -3 -4 -3 -9 0 -10 7 -21 -152 -21 -319 0 -198 44 -541 89 -710 37 -135 91 -422 91 -480 0 -33 -11 -103 -24 -156 -20 -85 -21 -97 -7 -106 12 -8 12 -11 1 -18 -9 -5 -11 -4 -6 3 4 7 1 12 -9 12 -9 0 -14 -4 -10 -9 3 -6 -3 -15 -12 -21 -15 -8 -12 -9 12 -4 17 4 46 22 65 40 34 32 40 34 105 34 l69 0 53 -57 c29 -32 53 -54 53 -50 0 4 -15 31 -33 60 -39 61 -77 151 -77 180 0 20 0 21 15 1 29 -39 14 8 -39 119 -75 158 -153 400 -181 567 -9 52 -23 127 -31 165 -20 92 -42 362 -50 610 -16 513 61 919 295 1544 34 90 66 172 72 183 6 11 9 22 6 24 -2 2 -19 -31 -37 -73z m-64 -3180 c10 -32 20 -64 22 -71 3 -10 -12 -12 -62 -10 -36 2 -65 5 -63 8 45 89 69 130 75 130 5 0 17 -26 28 -57z"
    />
    <path
      d="M1773 5410 c3 -11 22 -16 81 -18 84 -3 80 0 62 -57 -3 -11 2 -3 13 19 10 21 23 41 29 45 6 3 -31 4 -80 2 -68 -2 -93 0 -100 10 -8 11 -9 11 -5 -1z"
    />
    <path
      d="M2804 5373 c-178 -623 -231 -1166 -165 -1678 40 -303 87 -551 132 -688 16 -49 29 -92 29 -95 -1 -7 -23 28 -26 38 0 3 -5 16 -11 30 -168 395 -250 703 -299 1119 -16 136 -23 533 -12 676 5 63 4 78 -2 50 -17 -73 -24 -441 -11 -600 22 -274 77 -601 126 -745 14 -40 34 -107 46 -149 12 -42 25 -80 29 -86 4 -5 15 -35 25 -65 10 -30 28 -77 41 -105 12 -27 33 -75 47 -105 35 -78 137 -258 137 -242 0 7 -15 46 -34 85 -19 40 -46 115 -61 167 -15 52 -34 115 -42 140 -16 52 -66 334 -88 500 -53 407 -41 865 34 1260 39 202 62 306 92 407 17 57 29 108 27 114 -2 6 -8 -7 -14 -28z"
    />
    <path
      d="M1129 5385 c24 -51 86 -86 149 -84 36 1 36 2 -9 9 -59 10 -101 32 -129 67 -11 15 -17 19 -11 8z"
    />
    <path
      d="M1450 5390 c-9 -6 -10 -10 -3 -10 6 0 15 5 18 10 8 12 4 12 -15 0z"
    />
    <path
      d="M1774 5297 c-1 -50 2 -72 7 -57 9 33 11 140 2 140 -5 0 -8 -37 -9 -83z"
    />
    <path
      d="M1370 5334 c-30 -13 -50 -24 -45 -24 19 0 105 34 105 42 0 4 -1 7 -2 7 -2 -1 -28 -12 -58 -25z"
    />
    <path
      d="M1395 5288 c-26 -63 -31 -174 -11 -218 9 -19 13 -26 10 -15 -18 52 -16 151 4 210 24 70 22 84 -3 23z"
    />
    <path
      d="M5466 5050 c2 -52 7 -123 10 -157 7 -98 -15 -506 -36 -638 -36 -234 -52 -312 -100 -490 -51 -191 -104 -355 -152 -470 -16 -38 -42 -104 -57 -145 -16 -41 -65 -148 -110 -237 -45 -89 -81 -164 -81 -168 0 -49 140 235 241 488 169 424 260 773 291 1107 15 169 15 733 0 775 -9 24 -10 11 -6 -65z"
    />
    <path
      d="M144 4983 c-42 -69 -105 -161 -124 -180 -11 -12 -20 -32 -20 -45 0 -17 9 -9 35 35 19 31 53 82 75 112 22 30 40 59 40 65 0 5 4 10 9 10 5 0 11 7 15 15 9 26 -13 16 -30 -12z"
    />
    <path
      d="M1442 4974 c26 -29 26 -29 12 -94 -12 -59 -20 -169 -10 -159 2 2 7 36 10 74 6 62 16 110 33 169 3 12 1 16 -6 12 -6 -4 -23 1 -38 11 l-28 17 27 -30z"
    />
    <path
      d="M1532 4808 c-6 -6 -8 -17 -5 -26 4 -10 2 -13 -5 -8 -7 4 -12 2 -12 -3 0 -19 17 -12 34 13 16 26 8 44 -12 24z"
    />
    <path
      d="M89 4608 c-37 -52 -92 -158 -85 -165 3 -3 13 10 23 30 40 77 66 122 73 127 10 7 32 50 25 50 -2 0 -19 -19 -36 -42z"
    />
    <path
      d="M1886 4399 c-10 -51 -7 -222 9 -414 31 -393 132 -828 265 -1135 61 -143 190 -347 190 -302 0 6 -5 14 -10 17 -13 8 -57 74 -86 130 -12 22 -37 69 -57 105 -42 76 -97 238 -166 485 -29 104 -48 196 -71 330 -41 253 -52 357 -57 580 -3 127 -7 231 -8 233 -1 1 -5 -12 -9 -29z"
    />
    <path
      d="M1697 3413 c-24 -46 -52 -161 -43 -171 3 -2 10 16 16 39 18 71 32 112 47 142 8 16 12 31 9 34 -2 3 -16 -17 -29 -44z"
    />
    <path
      d="M4395 3258 c-15 -35 -48 -98 -73 -142 -25 -43 -45 -85 -45 -92 0 -8 -4 -14 -9 -14 -4 0 -8 -5 -8 -11 0 -26 29 14 77 108 66 125 104 213 94 213 -5 0 -21 -28 -36 -62z"
    />
    <path
      d="M5395 2884 c39 -14 76 -31 83 -37 7 -5 15 -7 19 -4 8 9 -93 54 -137 61 -21 4 -6 -4 35 -20z"
    />
    <path
      d="M266 2798 c-3 -29 -10 -119 -16 -199 -5 -80 -19 -179 -29 -220 -25 -94 -72 -211 -88 -217 -7 -2 -40 22 -73 53 l-59 58 1 -37 c1 -32 8 -40 29 -38 4 1 15 -8 25 -19 18 -20 18 -21 -8 -44 -15 -13 -33 -25 -40 -28 -7 -2 -10 -8 -5 -12 4 -5 25 6 46 23 44 35 52 37 68 21 13 -13 -28 -89 -83 -153 -37 -43 -46 -70 -13 -40 59 53 172 253 213 375 33 101 71 509 48 523 -7 4 -12 -13 -16 -46z"
    />
    <path
      d="M5046 2482 c-15 -24 -26 -46 -24 -47 7 -8 59 66 55 78 -2 6 -16 -8 -31 -31z"
    />
    <path
      d="M317 2144 c-37 -66 -75 -130 -84 -144 l-17 -25 28 25 c36 32 76 91 116 168 58 114 26 96 -43 -24z"
    />
    <path
      d="M4240 1972 c0 -31 44 -70 101 -86 35 -11 93 -16 175 -16 l123 0 36 -55 c63 -94 143 -130 195 -87 l25 21 -39 -13 c-70 -24 -110 -2 -176 94 l-38 55 -138 0 c-128 0 -142 2 -176 23 -20 13 -49 37 -63 53 -21 26 -25 27 -25 11z m40 -37 c13 -14 21 -25 18 -25 -2 0 -15 11 -28 25 -13 14 -21 25 -18 25 2 0 15 -11 28 -25z"
    />
    <path
      d="M38 1898 c-21 -12 -38 -26 -38 -31 0 -8 62 25 85 45 18 16 -10 8 -47 -14z"
    />
    <path
      d="M667 1785 c-20 -14 -37 -28 -37 -31 0 -2 18 8 40 22 35 23 47 34 37 34 -1 0 -19 -11 -40 -25z"
    />
    <path
      d="M475 1662 c-306 -205 -474 -323 -474 -335 -1 -5 27 13 62 38 63 47 103 74 396 273 91 62 160 112 155 111 -5 0 -67 -39 -139 -87z"
    />
    <path
      d="M500 1723 c-14 -9 -47 -30 -75 -47 -140 -88 -425 -282 -425 -289 0 -4 66 38 148 94 81 56 167 113 190 128 79 47 192 122 192 127 0 6 -2 5 -30 -13z"
    />
  </g>
</svg>
